<?xml version="1.0" standalone="no"?>
<!DOCTYPE svg PUBLIC "-//W3C//DTD SVG 1.1//EN" "http://www.w3.org/Graphics/SVG/1.1/DTD/svg11.dtd" >
<svg xmlns="http://www.w3.org/2000/svg" xmlns:xlink="http://www.w3.org/1999/xlink" version="1.1">
<metadata>
Created by FontForge 20170731 at Mon Oct 18 00:12:05 2021
 By Aleksey,,,
Copyright (c) 2021 by David Kerkhoff. All rights reserved.
</metadata>
<defs>
<font id="DailyChallengeDEMO-Regular" horiz-adv-x="626" >
  <font-face 
    font-family="Daily Challenge DEMO"
    font-weight="400"
    font-stretch="normal"
    units-per-em="2048"
    panose-1="0 0 0 0 0 0 0 0 0 0"
    ascent="1638"
    descent="-410"
    x-height="1417"
    cap-height="1399"
    bbox="5.77778 -397 1909 1784"
    underline-thickness="0"
    underline-position="0"
    unicode-range="U+000D-20AC"
  />
<missing-glyph horiz-adv-x="2011" 
d="M262 553l4 -553h-164l13 893l393 541l297 -312l-2 201h102l-10 -295l133 -139l115 -889h-619l13 553h-275zM1343 598q0 7 3 16q-11 0 -19 4q-10 -4 -33 -4q-26 0 -43.5 11t-17.5 26q0 8 6 17h-12q-35 0 -59.5 26.5t-24.5 63.5q0 56 43 78q-2 2 -2 8q-17 6 -29 24
q-31 8 -50.5 31t-19.5 53q0 35 27.5 60t67.5 28q-17 20 -17 52q0 50 37 63v16q0 40 35 69.5t84 29.5q13 0 29 -4q17 24 41 24q20 0 34 -18q42 22 93 22q62 0 108 -32q32 32 82 32q48 0 82.5 -33.5t34.5 -80.5q0 -9 -4 -25q12 -9 12 -29q0 -15 -6 -24q22 -18 22 -47
q0 -20 -10 -33q31 -6 51.5 -23.5t20.5 -40.5t-20.5 -41t-51.5 -24q10 -23 10 -53q0 -47 -22 -76q22 -15 22 -43q0 -24 -16 -37q16 -19 16 -43q0 -31 -27 -53.5t-65 -22.5q-41 0 -67 23q-9 -6 -25 -6q-10 0 -14 2l30 -584h-176l-22 573q-7 -19 -25.5 -30t-40.5 -11
q-29 0 -50.5 19t-21.5 47zM983 172l-10 203l-144 -6l21 -197h133zM963 582l-152 -15l16 -168l144 9zM815 172l-20 195l-121 -5l14 -190h127zM659 553l13 -162l119 6l-17 166zM442 819h99l2 121h-107zM430 1085l4 -108h109l2 110zM676 1090l-101 -3l-2 -110l97 -2zM573 819
h91l4 119l-95 2v-121z" />
    <glyph glyph-name=".notdef" horiz-adv-x="2011" 
d="M262 553l4 -553h-164l13 893l393 541l297 -312l-2 201h102l-10 -295l133 -139l115 -889h-619l13 553h-275zM1343 598q0 7 3 16q-11 0 -19 4q-10 -4 -33 -4q-26 0 -43.5 11t-17.5 26q0 8 6 17h-12q-35 0 -59.5 26.5t-24.5 63.5q0 56 43 78q-2 2 -2 8q-17 6 -29 24
q-31 8 -50.5 31t-19.5 53q0 35 27.5 60t67.5 28q-17 20 -17 52q0 50 37 63v16q0 40 35 69.5t84 29.5q13 0 29 -4q17 24 41 24q20 0 34 -18q42 22 93 22q62 0 108 -32q32 32 82 32q48 0 82.5 -33.5t34.5 -80.5q0 -9 -4 -25q12 -9 12 -29q0 -15 -6 -24q22 -18 22 -47
q0 -20 -10 -33q31 -6 51.5 -23.5t20.5 -40.5t-20.5 -41t-51.5 -24q10 -23 10 -53q0 -47 -22 -76q22 -15 22 -43q0 -24 -16 -37q16 -19 16 -43q0 -31 -27 -53.5t-65 -22.5q-41 0 -67 23q-9 -6 -25 -6q-10 0 -14 2l30 -584h-176l-22 573q-7 -19 -25.5 -30t-40.5 -11
q-29 0 -50.5 19t-21.5 47zM983 172l-10 203l-144 -6l21 -197h133zM963 582l-152 -15l16 -168l144 9zM815 172l-20 195l-121 -5l14 -190h127zM659 553l13 -162l119 6l-17 166zM442 819h99l2 121h-107zM430 1085l4 -108h109l2 110zM676 1090l-101 -3l-2 -110l97 -2zM573 819
h91l4 119l-95 2v-121z" />
    <glyph glyph-name=".null" horiz-adv-x="0" 
 />
    <glyph glyph-name="nonmarkingreturn" horiz-adv-x="682" 
 />
    <glyph glyph-name="NULL" horiz-adv-x="0" 
 />
    <glyph glyph-name="NULL" horiz-adv-x="0" 
 />
    <glyph glyph-name="CR" unicode="&#xd;" horiz-adv-x="491" 
 />
    <glyph glyph-name="space" unicode=" " horiz-adv-x="491" 
 />
    <glyph glyph-name="exclam" unicode="!" horiz-adv-x="303" 
d="M111 174v324q0 88 6.5 408t9.5 421v14q0 6 -1 23.5t-0.5 26t3.5 20.5t10.5 17.5t20.5 5.5q15 0 28 -11.5t13 -27.5v-2l-27 -1209q0 -30 -29 -30q-17 0 -34 20zM102 27q0 22 11 38.5t30 16.5q27 0 35 -25q0 -2 1 -12t1 -12q0 -22 -7.5 -32.5t-29.5 -10.5q-41 0 -41 37z
" />
    <glyph glyph-name="quotedbl" unicode="&#x22;" horiz-adv-x="464" 
d="M283 1262v147q20 23 39 23q36 0 36 -35q0 -58 2 -185.5t2 -199.5q0 -14 -9.5 -24.5t-24.5 -10.5q-37 0 -41 47q-4 57 -4 238zM111 1049q-7 55 -7 202q0 9 1 63t1 64q4 52 41 52q18 0 30.5 -10.5t12.5 -28.5q0 -16 -10 -338q0 -13 -11 -21t-24 -8q-21 0 -34 25z" />
    <glyph glyph-name="dollar" unicode="$" horiz-adv-x="630" 
d="M279 -63q-3 37 -3 69q-155 19 -155 277q0 45 33 45q11 0 21 -9t13 -20q0 -3 1 -11t1 -12q2 -35 5 -58t11 -56.5t25.5 -55t42.5 -30.5q-2 125 -2 375v161l-110 217q-60 135 -60 230q0 47 9.5 99t28.5 105.5t55.5 93.5t83.5 50q0 9 1 27.5t1 27.5q5 21 11.5 31t20.5 10
q11 0 21 -12t10 -27v-57q79 -13 131.5 -86t52.5 -158q0 -16 -9 -27.5t-23 -11.5q-24 0 -35 23q-11 63 -29 99.5t-61 76.5q-22 9 -27 10l-8 -684q9 -19 19 -39t19 -36t11 -21l72 -178q30 -77 30 -160q0 -76 -41 -136t-108 -73v-69q-3 -11 -12.5 -20t-18.5 -9q-10 0 -19 9
t-9 20zM236 848l36 -74l7 555q-53 -26 -79 -111.5t-26 -154.5q0 -35 10.5 -76.5t20.5 -66t31 -72.5zM385 362q-22 45 -49 113v-24q0 -250 2 -373q36 14 58 55t22 84q0 55 -33 145z" />
    <glyph glyph-name="quotesingle" unicode="'" horiz-adv-x="286" 
d="M104 1262v147q20 23 39 23q37 0 37 -35q0 -58 2 -185.5t2 -199.5q0 -14 -9.5 -24.5t-24.5 -10.5q-37 0 -41 47q-5 72 -5 238z" />
    <glyph glyph-name="comma" unicode="," horiz-adv-x="325" 
d="M154 -197q1 14 1 54t-0.5 87t-0.5 54q0 2 -2 13t-2 14q-14 -3 -29 6t-19 22q0 2 1 15.5t1 15.5q2 40 20 68t56 28q35 0 41 -43q-1 -22 0 -151t0 -152q0 -1 -1 -7.5t-1 -8.5q0 -14 -10.5 -25.5t-26.5 -11.5q-15 0 -28 22z" />
    <glyph glyph-name="hyphen" unicode="-" horiz-adv-x="622" 
d="M102 698q0 16 13.5 25.5t38 13t47.5 5t54 2t46 1.5q10 0 43 2t59 2t55 -2.5t45.5 -12t16.5 -25.5q0 -26 -20 -33l-346 -14q-52 0 -52 36z" />
    <glyph glyph-name="period" unicode="." horiz-adv-x="329" 
d="M104 92q2 31 18 56.5t46 25.5h4q1 0 6 -1t6 -1q26 -24 34 -38.5t7 -41.5q-4 -78 -61 -78q-31 0 -46.5 22.5t-13.5 55.5z" />
    <glyph glyph-name="slash" unicode="/" horiz-adv-x="598" 
d="M102 49v8l23 127l295 1213q8 24 37 24q17 0 28 -8.5t11 -23.5q0 -19 -13 -37l-303 -1266q0 -3 -1.5 -13t-2 -14.5t-2.5 -13.5t-5 -13.5t-7 -9.5t-10.5 -7.5t-14.5 -2.5q-13 0 -24 11.5t-11 25.5z" />
    <glyph glyph-name="zero" unicode="0" horiz-adv-x="704" 
d="M104 616q0 213 24.5 358t70.5 294q26 86 67.5 126.5t89.5 45.5t86.5 -15t63.5 -55t43.5 -91.5t28.5 -111.5t15.5 -130t7 -131t1.5 -130q0 -158 -11.5 -275.5t-41.5 -244.5q-58 -246 -195 -246q-62 0 -108.5 30.5t-71.5 79.5t-42.5 110.5t-21 125t-6.5 122.5t0 102v36z
M174 618q0 -10 0.5 -38t1 -52.5t0.5 -25.5v-8q-1 -412 180 -412q88 0 125 205q2 6 2 14q12 53 45 397v29q8 643 -168 631q-48 -4 -85.5 -86t-58.5 -202t-31.5 -238t-10.5 -214z" />
    <glyph glyph-name="one" unicode="1" horiz-adv-x="438" 
d="M272 1253l-102 -229q-12 -18 -35 -18q-13 0 -23 11t-10 25v5l164 339q10 17 29 17q15 0 27 -11t12 -24l2 -1333q0 -10 -11.5 -16.5t-21.5 -6.5q-11 0 -23 6.5t-12 16.5z" />
    <glyph glyph-name="two" unicode="2" horiz-adv-x="665" 
d="M139 18q-16 0 -26.5 12t-10.5 27q0 17 9 29t51.5 81.5t48.5 82.5q147 287 235 713q29 137 29 211q0 29 -3 55.5t-12 57.5t-30 50t-51 19q-39 0 -76 -33q-79 -72 -103.5 -160t-21.5 -215q-6 -22 -33 -22q-10 0 -14.5 0.5t-10 4.5t-9.5 13q0 5 -1 38t-1 38v6q0 134 56 238
t171 157q10 6 41 6q49 0 83.5 -24t52 -64t25 -81t7.5 -87v-26q-33 -326 -178 -719q-46 -130 -164 -336h319q18 0 29.5 -9t11.5 -24q0 -39 -26 -39h-398z" />
    <glyph glyph-name="eight" unicode="8" horiz-adv-x="606" 
d="M102 371q0 112 30.5 225.5t94.5 181.5v2q0 9 -20.5 44t-24.5 44q-45 118 -45 318q0 88 45.5 161.5t128.5 73.5q47 0 81 -25.5t50.5 -67.5t23.5 -83t7 -84q0 -95 -37 -205.5t-94 -191.5q74 -82 118 -224t44 -266q0 -62 -16.5 -119.5t-60 -102t-105.5 -44.5q-49 0 -88 25.5
t-63 65t-40 89.5t-22.5 95.5t-6.5 87.5zM172 373q0 -36 7 -81t22.5 -95t47 -83.5t73.5 -33.5q32 0 55 20t34 51.5t16 62t5 60.5q0 108 -43 249.5t-108 201.5q-15 -8 -23 -18q-86 -169 -86 -334zM209 1182q0 -230 67 -342q9 -17 15 -17h2q2 0 6 4q2 3 12 18.5t11 18.5
q35 64 57 147t22 154q0 27 -2.5 52t-10.5 59t-28 55t-49 21q-37 0 -61.5 -31t-32.5 -67t-8 -72z" />
    <glyph glyph-name="nine" unicode="9" horiz-adv-x="649" 
d="M547 967q0 -12 -1 -44l-1 -32q-6 -134 -17 -213l-75 -426q-4 -4 -45 -170q-21 -76 -60 -76q-35 0 -35 35q0 9 8.5 22.5t10.5 18.5l39 139l82 424q0 21 18 162v6q-58 -37 -119 -37q-125 0 -187.5 85t-62.5 216q0 56 11.5 112.5t35 112t68.5 90.5t105 35q57 0 99.5 -35
t66 -85.5t37.5 -118t18 -119t4 -102.5zM475 979q0 125 -22 215.5t-91 155.5q-4 0 -12 8h-28q-43 0 -74 -29.5t-46 -76.5t-21.5 -90.5t-6.5 -84.5q0 -102 42 -166.5t136 -64.5q63 0 123 67v66z" />
    <glyph glyph-name="colon" unicode=":" horiz-adv-x="329" 
d="M104 907q2 31 18 56.5t46 25.5h4q1 0 6 -1t6 -1q26 -24 34 -38.5t7 -41.5q-4 -78 -61 -78q-31 0 -46.5 22.5t-13.5 55.5zM104 92q2 31 18 56.5t46 25.5h4q1 0 6 -1t6 -1q26 -24 34 -38.5t7 -41.5q-4 -78 -61 -78q-31 0 -46.5 22.5t-13.5 55.5z" />
    <glyph glyph-name="semicolon" unicode=";" horiz-adv-x="329" 
d="M154 -197q1 14 1 54t-0.5 87t-0.5 54q0 2 -2 13t-2 14q-14 -3 -29 6t-19 22q0 2 1 15.5t1 15.5q2 40 20 68t56 28q35 0 41 -43q-1 -22 0 -151t0 -152q0 -1 -1 -7.5t-1 -8.5q0 -14 -10.5 -25.5t-26.5 -11.5q-15 0 -28 22zM104 907q2 31 18 56.5t46 25.5h4q1 0 6 -1t6 -1
q26 -24 34 -38.5t7 -41.5q-4 -78 -61 -78q-31 0 -46.5 22.5t-13.5 55.5z" />
    <glyph glyph-name="question" unicode="?" horiz-adv-x="659" 
d="M225 227q0 4 -1 24.5t-1 24.5q0 106 17.5 211t56 218.5t70.5 193t88 207.5l14 31q4 9 4 57q0 62 -29 101.5t-90 39.5q-56 0 -98.5 -33.5t-67.5 -89.5q-4 -10 -7 -33.5t-11 -36t-29 -12.5q-39 0 -39 58q0 91 81 159t175 68q52 0 115 -37q82 -45 82 -186q0 -53 -6 -68
q-67 -134 -115 -259t-72 -210t-39 -177t-18 -135t-6 -110q-5 -26 -41 -26q-27 0 -33 20zM246 51q0 25 10.5 45.5t32.5 20.5q17 0 28 -12t11 -31q0 -62 -39 -62q-19 0 -31 10.5t-12 28.5z" />
    <glyph glyph-name="at" unicode="@" horiz-adv-x="987" 
d="M102 653q0 106 13.5 203.5t44.5 199.5t91.5 187t145.5 139q102 64 201 64q60 0 108 -22t78 -56t51.5 -83.5t32 -97t17.5 -104.5q0 -109 -4 -198.5t-4 -122.5q0 -3 -3 -28.5t-6.5 -48t-10.5 -56t-18 -60.5t-25.5 -51.5t-36.5 -38.5t-48 -14q-50 0 -85.5 33.5t-51 76
t-21.5 93.5q-8 -27 -13 -41.5t-16 -42.5t-22.5 -44.5t-27 -34.5t-35.5 -27t-43 -9q-39 0 -66.5 20.5t-41 55t-18.5 68t-5 71.5q0 53 15.5 118.5t44.5 129.5t79 107.5t110 43.5q26 0 66.5 -11.5t40.5 -29.5v-335q0 -10 3 -32t10.5 -56t26 -58t44.5 -24t45 48.5t28 123.5
t13 142.5t4 127.5q0 35 -0.5 55t-4.5 66.5t-11.5 77.5t-23 71.5t-37.5 65t-57.5 42t-80.5 17.5q-69 0 -143 -41q-82 -45 -140.5 -124t-87.5 -176t-41 -188.5t-12 -191.5q0 -59 12.5 -131.5t41 -150.5t67 -142t97.5 -105.5t126 -41.5q36 0 65 15t47 37t34 48.5t26.5 48.5
t24.5 37t28 15q15 0 25 -11.5t10 -25.5q0 -8 -13 -31.5t-13 -30.5q-98 -176 -236 -176q-68 0 -128 31.5t-104.5 85t-80 120t-57 139.5t-33 141.5t-11.5 127.5zM352 678q0 -135 62 -135q60 0 110 219q4 8 4 12q29 114 39 227q-13 9 -37 9q-30 0 -47 -17q-64 -42 -97.5 -134.5
t-33.5 -180.5z" />
    <glyph glyph-name="A" unicode="A" 
d="M399 281q-229 0 -229 -35v-191q0 -8 -12.5 -18t-20.5 -10q-12 0 -23.5 8.5t-11.5 19.5v297q62 729 97 926q0 2 3.5 21.5t6 29t7.5 29t10.5 31t13 24.5t17.5 19t22 6q34 0 62 -86t71.5 -376t105.5 -839q1 -2 2 -15t2 -28.5t2 -21.5q0 -58 -32 -58q-11 0 -22.5 6t-12.5 17
l-25 239q-2 5 -8 5h-25zM170 342q0 -10 6 -12q6 2 76 14q15 2 57.5 4t75.5 3.5t33 4.5v31l-133 924l-6 -4q0 1 -1.5 -7t-4.5 -27.5t-7 -48.5t-10 -73.5t-12.5 -98.5t-14.5 -128t-17 -157t-19 -190.5t-21 -224.5q-2 -8 -2 -10z" />
    <glyph glyph-name="B" unicode="B" horiz-adv-x="649" 
d="M160 27q0 2 -1 13q-11 237 -55 1344q-4 45 33 48q45 4 71 6t68 3t68.5 -3.5t60.5 -15t56 -27.5t43 -45t33 -66q7 -75 8.5 -132t-4.5 -130.5t-30.5 -138.5t-66.5 -117q-21 -28 -56 -69.5t-42 -45.5q13 -6 41 -11.5t41 -14.5q96 -66 111 -222q10 -101 -16.5 -188t-98 -148
t-178.5 -71h-6q-17 0 -34 -1t-30.5 7t-15.5 25zM180 1358l19 -705q43 5 92 54q108 91 151 222t29 279q-5 58 -27.5 94.5t-56 49t-76 16t-86.5 -3.5q-2 0 -22 -3t-23 -3zM215 582h-4q-8 -4 -8 -7l24 -518q86 8 144.5 62t80.5 127.5t15 154.5q-12 114 -71 153t-181 28z" />
    <glyph glyph-name="C" unicode="C" horiz-adv-x="667" 
d="M104 625v24q0 320 43 493q69 270 238 271q86 0 133 -62t47 -153q0 -41 -33 -41q-18 0 -27 19t-13.5 46t-12 54t-31 46t-63.5 19q-30 0 -56.5 -16t-45.5 -46.5t-35 -66t-27 -85t-19 -93t-12.5 -99.5t-7.5 -95t-4 -89.5t-1.5 -72.5t-0.5 -53q0 -56 12 -215q4 -30 10 -60.5
t19.5 -79t30 -84t43 -62t57.5 -26.5q42 0 65.5 28t30.5 68t11.5 80.5t15 68.5t33.5 28q33 0 33 -35q0 -49 -9.5 -99t-30 -99t-59.5 -80t-90 -31q-61 0 -107 43.5t-71 107t-41 149.5t-20.5 156t-4.5 142z" />
    <glyph glyph-name="D" unicode="D" horiz-adv-x="710" 
d="M104 250q0 685 9 1149q0 15 8 22.5t17 9.5t28 3q75 7 136.5 -2.5t104.5 -30t76.5 -57t54 -75t35.5 -91.5t22 -98.5t13 -104.5q0 -101 -1.5 -170.5t-6 -151.5t-14 -139t-25 -119t-39 -106.5t-55.5 -87.5t-75.5 -75.5t-98.5 -57.5q-1 0 -3 -1t-3 -1q-80 -35 -121 -35
q-22 0 -35 13t-17.5 38t-6 49t-1.5 61t-2 58zM174 489q0 -65 5 -190.5t5 -192.5q24 0 70 23q196 87 238 258q45 176 45 453q0 51 -1 87t-7.5 95t-18 100t-35 89.5t-56 78.5t-83 50t-113.5 20q-6 0 -19.5 -1t-19.5 -1q-10 -495 -10 -869z" />
    <glyph glyph-name="E" unicode="E" horiz-adv-x="532" 
d="M104 137q0 30 -1 187t-1 184q0 210 6.5 461t6.5 383q0 43 32 51q176 18 230 18q29 0 41 -8t12 -27q0 -11 -6.5 -21.5t-17.5 -10.5l-209 -17l-11 -4q0 -51 -12 -450q0 -8 1 -54.5t1 -54.5h8q78 17 129 23h6q20 0 29 -1t17 -8t8 -22q0 -26 -49.5 -38t-99.5 -17.5t-50 -14.5
v-559l4 -57h8q7 0 100 24.5t107 24.5q33 0 33 -35q0 -36 -29 -39l-194 -47q-35 0 -55.5 8t-29.5 29t-11 37.5t-3 54.5z" />
    <glyph glyph-name="F" unicode="F" horiz-adv-x="526" 
d="M121 72q-19 261 -19 372q0 135 2 446t2 478q0 13 11 22t24 9q93 0 242 -4q18 0 29.5 -10.5t11.5 -28.5q0 -15 -11 -26t-26 -11q-27 0 -75.5 2t-65.5 2q-50 0 -70 -4q0 -32 -2 -208t-2 -206v-41l4 -6h162q9 0 13.5 -11.5t4.5 -21.5q0 -22 -29 -30.5t-63 -6t-63 1
t-29 -11.5q0 -12 -1 -85t-1 -87q0 -19 0.5 -60.5t1 -76.5t0.5 -37q0 -31 8 -182t10 -156q4 -55 -38 -55q-27 0 -31 33z" />
    <glyph glyph-name="G" unicode="G" horiz-adv-x="681" 
d="M102 752q0 82 13 286q3 25 4 30.5t7 43.5t11.5 57.5t17 59.5t23 63.5t30.5 54.5t39 48.5t48 30t59 12.5q69 0 120.5 -46t74 -109.5t22.5 -129.5q0 -6 0.5 -16t0 -15t-1 -12t-2.5 -10.5t-5 -7.5t-8.5 -5.5t-13.5 -1.5q-17 0 -24.5 7.5t-12.5 25.5q-1 39 -8 78t-23 80
t-47 66.5t-74 25.5q-85 0 -137 -199q-39 -144 -39 -432q0 -194 14 -282q0 -1 1.5 -8t1.5 -11q3 -30 6.5 -55t12 -70.5t22.5 -80.5t33 -70t48.5 -54.5t65.5 -19.5q27 0 47.5 25t33 69.5t21.5 93t12.5 109t5 103.5t1.5 89v158q-28 0 -86 -2t-86 -2q-14 0 -24.5 10t-10.5 25
q0 12 8.5 20.5t25 13t35 7t45 2.5t47.5 -0.5t50.5 -1t46.5 -0.5q6 -5 11 -12.5t7.5 -18t4 -20.5t2 -25t1 -24.5t0 -26.5t-0.5 -25q0 -237 -15 -340q0 -2 -1 -5t-1 -5q-5 -35 -9 -57t-12.5 -61t-21 -64t-30.5 -51.5t-44.5 -40t-58.5 -13.5q-47 0 -86 21t-67 59.5t-50 86
t-35.5 108.5t-23 118t-14 123t-6 116t-1.5 104z" />
    <glyph glyph-name="H" unicode="H" horiz-adv-x="657" 
d="M432 43q0 106 2 284.5t2 268.5q-4 0 -24 1t-23 1q-205 -14 -213 -18q0 -90 2 -257.5t2 -252.5q0 -18 -10 -28.5t-25 -10.5t-24.5 11t-9.5 26v8q0 18 -3.5 128t-3.5 128q0 10 -0.5 72t-0.5 116t1 154.5t3 199t6 237.5t10 282q3 26 35 26q24 0 32 -22q0 -125 -7 -369.5
t-7 -368.5l4 -4h19q29 0 135 9t106 12l9 8l34 717q1 10 12.5 19.5t22.5 9.5q8 0 21 -8t16 -17l-53 -1354q0 -13 -10 -23t-23 -10q-28 0 -37 25z" />
    <glyph glyph-name="I" unicode="I" horiz-adv-x="364" 
d="M102 78v14l84 1262q4 45 35 45q41 0 41 -35q0 -1 -2 -8t-2 -8l-88 -1297q-3 -18 -35 -18q-33 0 -33 45z" />
    <glyph glyph-name="J" unicode="J" horiz-adv-x="634" 
d="M102 266q0 28 8 39.5t27 11.5t28.5 -24t14 -58.5t13 -68.5t32.5 -58t64 -24q170 0 170 539v84q-4 138 -9.5 259t-10 195.5t-8 129t-5.5 81t-2 29.5q0 13 9 22t24 9q8 0 19.5 -7t12.5 -14l39 -711q0 -1 0.5 -11t1 -22.5t0.5 -17.5v-24q9 -613 -243 -613q-61 0 -104.5 40
t-62 96t-18.5 118z" />
    <glyph glyph-name="K" unicode="K" horiz-adv-x="636" 
d="M102 1393q0 39 31 39q17 0 26.5 -10.5t11.5 -20.5t3 -31v-6l23 -653l6 -4q73 61 123 262q55 223 61 428q1 13 13 23t24 10q14 0 24.5 -9t10.5 -22q-2 -178 -38 -361t-108 -301l-49 -78q38 -30 69.5 -66.5t55 -80.5t40.5 -83.5t32.5 -94.5t25 -93t23.5 -99.5t22 -94.5
q3 -43 -38 -43q-24 0 -31 19q-9 84 -27.5 173t-65.5 201t-110 168q-9 9 -26 23t-19 14h-10l33 -512q0 -9 8 -41q0 -47 -37 -47q-14 0 -23 7t-13 21.5t-5 23t-2 26.5v6l-64 1282v25z" />
    <glyph glyph-name="L" unicode="L" horiz-adv-x="536" 
d="M131 61q-14 88 -20.5 196t-7.5 195.5t-1 276.5q0 329 17 672q5 22 33 22q41 0 41 -82q0 -10 -13.5 -278.5t-13.5 -454.5q0 -470 35 -502l4 -4q8 -2 12 -2q65 0 168 27q1 0 6 1t6 1q37 0 37 -31q0 -71 -233 -71q-14 0 -21 0.5t-19.5 3t-19.5 10.5t-10 20z" />
    <glyph glyph-name="M" unicode="M" horiz-adv-x="931" 
d="M106 55q0 195 -2 545.5t-2 454.5l19 274v2q6 80 43 80q19 0 32.5 -17.5t18.5 -39.5l186 -1055l146 815q2 4 8.5 31.5t15 62t11.5 45.5q4 20 11 43.5t19 54.5t29 51.5t35 20.5q31 0 47 -42t16 -78l80 -889q0 -1 3 -58.5t3 -74.5q0 -6 2 -39.5t2 -64t-2 -65t-10.5 -55
t-23.5 -20.5t-24 10.5t-11 28.5l-78 1124q0 8 -3 28.5t-6 37.5l-3 18l-37 -121l-191 -1057q-2 -14 -13 -25t-24 -11q-11 0 -23 8t-13 18l-193 1059v-1112q0 -18 -33 -18q-13 0 -24 8.5t-11 21.5z" />
    <glyph glyph-name="N" unicode="N" horiz-adv-x="610" 
d="M119 51q-17 970 -15 1006q1 28 2.5 67t2.5 68t2.5 62t4 55.5t6.5 42t10 29t15 8.5q8 0 20 -8.5t13 -16.5l250 -1022l12 1022q0 3 6 10t11 10q15 0 22.5 -0.5t17 -8t9.5 -21.5v-250q0 -103 -4 -150v-862q0 -59 -39 -59q-11 0 -20.5 8t-10.5 20l-266 1065q-2 -156 7 -473.5
t9 -435.5q0 -14 1.5 -46t1.5 -51t-3 -42t-12 -34t-25 -11h-4q-18 0 -24 18z" />
    <glyph glyph-name="O" unicode="O" horiz-adv-x="729" 
d="M104 633v10q0 434 87 623q75 162 210 155q45 -2 81 -23.5t59.5 -52t40.5 -78.5t25.5 -90t13 -101.5t5.5 -98.5t1 -94q0 -295 -56 -559q-11 -49 -20.5 -83t-29.5 -82.5t-43 -78.5t-59.5 -52t-80.5 -22q-38 0 -69.5 15.5t-54.5 38t-41 62t-29.5 74t-19.5 87t-11.5 88.5
t-6 91.5t-2.5 82.5v74v14zM176 479l17 -160q3 -9 9.5 -43t15 -64t22.5 -62.5t39 -52t59 -19.5q45 0 78 38t47 81.5t26.5 93.5t16.5 59q33 202 41 298t8 251v8q0 447 -166 447q-28 0 -51 -13q-53 -29 -88.5 -117t-50.5 -207.5t-20 -210t-5 -183.5q0 -124 2 -144z" />
    <glyph glyph-name="P" unicode="P" horiz-adv-x="624" 
d="M109 43q0 62 -3.5 184.5t-3.5 182.5q0 14 0.5 47t1 60.5t0.5 29.5l25 813q2 47 131 47q88 0 149 -48t87 -119.5t26 -158.5q0 -79 -20.5 -151t-60.5 -133.5t-107.5 -104t-155.5 -55.5q-6 -49 -6 -164q0 -69 3 -202t3 -199q0 -58 -33 -58q-36 0 -36 29zM178 723
q0 -10 17 -10q63 0 114 36.5t80.5 93.5t45.5 119t16 119q0 51 -10.5 95t-33 80t-62 56.5t-91.5 20.5q-53 0 -53 -10l-23 -594v-6z" />
    <glyph glyph-name="Q" unicode="Q" horiz-adv-x="720" 
d="M102 643q0 6 1 18.5t1 18.5q2 75 4 117t6.5 121.5t13 129t21.5 117.5t33.5 110t47.5 83t65 60.5t84 19.5q50 3 89 -13t63.5 -40.5t42 -68.5t26 -78t13 -88.5t5 -82t0.5 -74.5q0 -124 -18.5 -375.5t-56.5 -406.5l-15 -45v-14q64 -19 64 -52q0 -39 -31 -39
q-13 0 -34.5 11.5t-32.5 11.5h-7q-30 -43 -64.5 -62.5t-86.5 -19.5q-165 0 -207 244q-27 177 -27 397zM174 631q0 -113 2 -119q0 -6 4.5 -54t9.5 -107t7 -77q15 -128 88 -190q28 -21 68 -9t67 42q6 6 6 8q-6 14 -32.5 31.5t-48 38t-21.5 47.5q0 32 30 32q23 0 54.5 -38.5
t50.5 -38.5q4 0 7 9t6 20t3 12q70 279 70 753q0 49 -1.5 85.5t-6.5 84t-16.5 80.5t-28.5 63.5t-45.5 46t-65.5 15.5h-10q-141 -30 -180 -450q-8 -83 -15 -236q0 -8 -1 -25t-1 -24z" />
    <glyph glyph-name="R" unicode="R" horiz-adv-x="645" 
d="M135 72l-33 1310q0 24 44 39t79 17h105q97 -22 151 -111t54 -197q0 -96 -45.5 -172.5t-129.5 -146.5q-9 -7 -46 -32t-48 -31l-6 -5q66 -42 115 -102.5t78.5 -135t46.5 -144t28 -154.5l15 -135v-15q0 -37 -35 -37q-26 0 -33 19l-4 35q-5 52 -8 80.5t-10 78.5t-14 81
t-19 76t-26 75.5t-34.5 68t-44.5 64.5t-56.5 53.5t-70.5 46.5l19 -626v-15q0 -15 -9 -24.5t-24 -9.5q-21 0 -29 12.5t-10 36.5zM178 1352l6 -582q115 58 196 156t81 209q0 77 -36.5 145t-105.5 84h-45q-4 0 -18 0.5t-21.5 0t-18.5 -1.5t-20.5 -3.5t-17.5 -7.5z" />
    <glyph glyph-name="S" unicode="S" horiz-adv-x="630" 
d="M121 283q0 45 33 45q11 0 21 -9t13 -20q0 -3 1 -11t1 -12q2 -27 3.5 -41t6 -42t12 -44.5t18 -35.5t28 -29t39.5 -12q54 -4 87.5 42.5t33.5 102.5q0 55 -33 145l-70 162q-122 248 -153 305q-60 135 -60 230q0 39 6.5 83t22 93t38.5 87.5t60 63.5t82 25q90 0 153.5 -77.5
t63.5 -170.5q0 -16 -9 -27.5t-23 -11.5q-24 0 -35 23q-11 63 -29 99.5t-61 76.5q-31 14 -58 14q-37 0 -66 -31.5t-44 -78.5t-22 -89.5t-7 -74.5q0 -35 10.5 -76.5t20.5 -66t31 -72.5l149 -295l72 -178q30 -77 30 -160q0 -87 -51 -149t-133 -62q-55 0 -93 25.5t-56 69.5
t-25.5 88t-7.5 96z" />
    <glyph glyph-name="T" unicode="T" horiz-adv-x="630" 
d="M225 41q0 21 -1 172t-1 174q0 156 6.5 476t6.5 474h-107q-8 0 -16.5 13t-10.5 22v2q0 7 8 21t15 14l381 8q9 0 15.5 -12.5t6.5 -22.5q0 -11 -8 -20.5t-18 -11.5q-80 0 -150 -7q-3 0 -19 -2t-18 -2q-26 -654 -16 -1306q-10 -33 -37 -33q-17 0 -27 11.5t-10 29.5z" />
    <glyph glyph-name="U" unicode="U" horiz-adv-x="714" 
d="M102 743q0 8 1 37.5t1 30.5l27 584q3 26 37 26h14q3 -1 10 -8.5t7 -9.5v-64q0 -7 -1 -20.5t-1 -20.5q-21 -349 -21 -557q0 -7 0.5 -24t1.5 -31v-14q9 -191 21 -305q0 -3 1 -8.5t1 -8.5q6 -37 10.5 -59.5t14.5 -59t23 -60t31.5 -47.5t46 -36t60.5 -12q89 0 125 203
q1 5 4.5 28.5t6.5 44.5t3 27q13 585 13 627v198q0 31 -6.5 93.5t-6.5 91.5q0 14 10.5 26t24.5 12q28 0 37 -43q14 -86 14 -301v-77l-14 -627q-1 -40 -7 -84t-21 -98t-37 -96t-59.5 -70.5t-84.5 -28.5q-60 0 -106.5 26.5t-73 65t-46 96t-27 104t-13.5 105.5q-8 63 -19 275
l-1 30q-1 30 -1 39z" />
    <glyph glyph-name="V" unicode="V" horiz-adv-x="780" 
d="M297 66l-195 1306v6q0 15 10 27t25 12q36 0 41 -65v-4l164 -1127l4 4l264 1192q1 9 12.5 16t22.5 7q14 0 23.5 -10t9.5 -25l-11 -46q-11 -46 -36 -154t-58 -254.5t-85 -384.5t-109 -507q-18 -36 -41 -36q-16 0 -27 13t-14 30z" />
    <glyph glyph-name="W" unicode="W" horiz-adv-x="948" 
d="M569 94l-120 1090l-203 -1135q-2 -5 -9 -13.5t-10 -8.5h-34q-5 0 -9.5 6t-8 15.5t-5.5 18t-4 17.5l-2 10l-62 1159v150q0 3 7 9.5t10 8.5h12q43 0 39 -59l49 -1104l201 1141q3 26 33 26q35 0 39 -41l129 -1179l151 1130q0 2 0.5 12.5t1 15.5t2.5 15t4.5 15.5t6.5 11.5
t11 9t15 3t20.5 -5.5t12.5 -12.5v-64l-191 -1282q-2 -17 -12 -29t-27 -12q-41 0 -47 82z" />
    <glyph glyph-name="X" unicode="X" horiz-adv-x="665" 
d="M338 516l-121 -489q-3 -8 -13.5 -13.5t-19.5 -5.5q-17 0 -27 10t-10 25l3 10l147 594l-195 713v45q0 2 7.5 8.5t11.5 7.5q2 2 16 2q15 0 24 -9t11.5 -19t3.5 -27l158 -588l160 602q6 23 32 23q37 0 37 -33l-2 -12l-180 -694v-33l180 -598v-2q0 -33 -37 -33q-25 0 -35 27z
" />
    <glyph glyph-name="Y" unicode="Y" horiz-adv-x="780" 
d="M346 86l31 727l-273 555q-2 10 -2 33q0 31 31 31q32 0 41 -35l238 -494l196 488q6 17 13 22.5t24 5.5q19 0 26 -8.5t7 -26.5v-14l-227 -573l-33 -760q0 -3 -7 -11t-10 -10h-16q-17 0 -26.5 12t-11 25t-1.5 33z" />
    <glyph glyph-name="Z" unicode="Z" horiz-adv-x="579" 
d="M102 43v6l293 1288v6q0 9 -4 9h-260q-1 0 -7.5 7.5t-8.5 10.5q-2 10 -2 12q0 15 7 24.5t21.5 13t25 4.5t28.5 1h198q25 -3 39.5 -6t29.5 -15.5t15 -33.5l-2 -8l-282 -1272v-10q37 0 109.5 7t109.5 7t37 -35q0 -32 -52 -36q-102 -12 -231 -19l-9 -1q-9 -1 -12 -1
q-43 0 -43 41z" />
    <glyph glyph-name="a" unicode="a" horiz-adv-x="653" 
d="M104 20q-14 646 123 1385q7 37 37 37q52 0 80 -111q0 -1 1 -4t1 -4q9 -27 35.5 -120t32.5 -120q13 -53 39.5 -188t29.5 -162l68 -651v-21q0 -47 -33 -47q-12 0 -23 10t-12 23l-28 293l-4 4h-60q-133 0 -213 -8q0 -7 -2 -48t-2 -48q-2 -22 -2 -105.5t2 -105.5
q-2 -12 -13 -21.5t-24 -9.5q-8 0 -20.5 6.5t-12.5 15.5zM283 1282l-4 6q-86 -494 -95 -878q4 0 31 1t31 1q45 0 200 10v14q0 13 -12.5 115.5t-19.5 146.5q-6 39 -30.5 170t-33.5 170q-10 47 -37 144t-30 100z" />
    <glyph glyph-name="b" unicode="b" horiz-adv-x="636" 
d="M102 713l9 692q2 12 11 22t21 11q8 0 52.5 2t52.5 2h39q87 0 158 -41.5t90 -122.5v-49q0 -109 -40 -216t-112 -184q-7 -8 -35 -29t-37 -34q87 -22 129.5 -101t42.5 -176q0 -58 -3.5 -107t-13 -107.5t-29.5 -103.5t-49.5 -84t-76 -60t-106.5 -21h-47q-38 6 -41 49l-15 191
v467zM287 1370h-39q-6 -1 -21.5 -2t-26 -2t-10.5 -2l-6 -4q-4 -74 -6 -105q0 -36 -1 -240t-1 -241h8q84 30 149 105t97.5 166t32.5 182q0 3 -1 21.5t-1 21.5q-5 27 -24 47.5t-45.5 31.5t-53 16t-51.5 5zM236 698q-3 0 -10.5 -0.5t-19.5 -2t-21 -4.5t-9 -7v-446q0 -8 8 -132
q0 -16 6 -28h29q193 0 193 414q0 206 -176 206z" />
    <glyph glyph-name="c" unicode="c" horiz-adv-x="649" 
d="M408 1442q49 0 81.5 -31.5t45 -74.5t12.5 -93q0 -14 -11 -24.5t-26 -10.5q-20 0 -28.5 16.5t-10.5 40.5t-5.5 48t-18.5 40.5t-44 16.5q-60 0 -107 -53t-71.5 -131t-36.5 -149.5t-12 -125.5v-376q0 -69 8 -123l13 -82l14 -49q1 -1 14.5 -43.5t18.5 -51.5q38 -110 92 -110
q20 0 38 26t27 52q42 109 52 268q-1 13 9.5 24t22.5 11q19 0 27.5 -7t11.5 -26q0 -55 -8 -111q-4 -38 -15 -85t-31 -100t-55 -88.5t-77 -35.5q-35 0 -65 18.5t-48.5 41.5t-37 64t-25.5 63t-19 63q-41 134 -41 281v376q0 73 16 157t49 171.5t96 145t145 57.5z" />
    <glyph glyph-name="d" unicode="d" horiz-adv-x="698" 
d="M104 53q0 23 -1 150t-1 149q0 520 33 1049q4 41 41 41q161 0 250.5 -43.5t129.5 -144t40 -281.5q0 -79 -39 -393q-8 -54 -12.5 -84t-16.5 -88.5t-24.5 -95.5t-34.5 -87t-47.5 -82.5t-63 -62.5t-82.5 -45q-8 -2 -29 -9.5t-33.5 -11.5t-31 -8t-32.5 -4q-21 0 -33.5 14.5
t-12.5 36.5zM172 311l4 -227q12 -1 41.5 8.5t30.5 9.5q55 19 94 58.5t61 95.5t34 106t25 118t23 104q37 236 37 397q0 73 -6 124.5t-25 104.5t-52.5 85t-92 52.5t-139.5 20.5q0 -5 -6 -59t-6 -64z" />
    <glyph glyph-name="e" unicode="e" horiz-adv-x="589" 
d="M102 1290v103q0 21 35.5 29t65.5 8q3 0 22 0.5t36.5 1t42 -0.5t44.5 -4.5t38.5 -9t29 -16.5t10.5 -25q0 -12 -11 -22.5t-24 -10.5h-4q-89 15 -182 15h-27l-2 -6v-60q0 -16 3 -151t6 -251t5 -151h3q4 0 137 27q20 4 45 4q17 0 27 -9t10 -24q0 -32 -25 -35l-168 -30
q-12 -12 -29 -19q0 -6 -1 -39t-1 -39q0 -11 1 -43t1 -34l21 -400h6q12 2 53.5 10.5t61 12t51.5 7t59 3.5q45 0 45 -35q0 -11 -8 -21.5t-18 -11.5l-172 -24q-4 0 -36.5 -6t-35.5 -6q-1 0 -9.5 -1t-10.5 -1q-26 0 -41 16.5t-17 44.5z" />
    <glyph glyph-name="f" unicode="f" horiz-adv-x="528" 
d="M127 51q-2 90 -9.5 326.5t-11.5 416t-4 310.5v293q8 23 33 26q44 -2 124.5 4.5t115.5 6.5h26q25 -9 25 -37q0 -10 -5 -21.5t-13 -11.5l-234 -18v-418q27 0 78 5t76 5q16 0 27.5 -8.5t11.5 -24.5q0 -13 -9.5 -23.5t-23.5 -13.5l-160 -16v-23q0 -123 12.5 -395.5
t12.5 -396.5q0 -17 -10 -29t-25 -12q-20 0 -30 17t-7 38z" />
    <glyph glyph-name="g" unicode="g" horiz-adv-x="692" 
d="M102 694q0 42 1.5 89.5t8.5 123t18 143t33 140.5t50.5 125t73 85.5t98.5 33.5q63 0 104.5 -36.5t57.5 -87t16 -110.5q0 -4 -1 -25t-1 -24q-5 -23 -35 -23q-24 0 -32 23q0 25 -0.5 40.5t-3.5 44.5t-10 47.5t-18 38.5t-31 30t-46 10q-51 0 -87.5 -47.5t-53.5 -106.5
q-70 -226 -70 -514q0 -162 20 -289t80 -237l15 -16q4 -5 59 -60q36 -18 53 -18q51 0 74 94q19 75 28.5 168.5t11 155t1.5 172.5v41h-14q-11 0 -36 -1.5t-45.5 -2.5t-21.5 -1q-10 0 -33 -4t-32 -4q-15 0 -26 12t-11 27q0 11 9 21.5t20 13.5q102 12 202 12q26 0 40 -5.5
t22 -24.5v-54q0 -85 -19 -415q-5 -32 -7 -46t-9.5 -49.5t-15 -55t-20.5 -47.5t-28.5 -43t-38 -26.5t-49.5 -11.5q-64 0 -108 41q-52 46 -89 109.5t-57 124t-31 140.5t-13.5 139.5t-2.5 139.5z" />
    <glyph glyph-name="h" unicode="h" horiz-adv-x="667" 
d="M102 301l45 1096q0 10 11.5 16t23.5 6q9 0 21.5 -8.5t13.5 -19.5l-33 -762l279 26l29 756q0 10 11.5 16.5t22.5 6.5q12 0 24 -8t15 -21l-59 -1380q-1 -13 -12 -20t-23 -7q-29 0 -35 22q0 3 -1 18.5t-1 18.5q0 77 10.5 260t10.5 261h-43l-230 -23l-12 -518q-3 -27 -33 -27
q-35 0 -35 19v272z" />
    <glyph glyph-name="i" unicode="i" horiz-adv-x="331" 
d="M102 39v10l54 1307q1 19 3.5 29.5t12.5 19t27 8.5q30 0 30 -35v-18l-55 -1292q0 -68 -37 -68q-16 0 -25.5 11.5t-9.5 27.5z" />
    <glyph glyph-name="j" unicode="j" horiz-adv-x="606" 
d="M137 352q11 0 21.5 -6.5t13.5 -15.5v-105q0 -32 5.5 -62.5t25.5 -58.5t51 -28q39 0 80 55q38 24 61 201t29 352.5t6 364.5v284q-4 20 -4 49v19q14 18 31 18q10 0 18 -5t12.5 -10.5t8 -17t4.5 -18t2.5 -19.5t1.5 -16v-250q0 -391 -15 -604q-8 -96 -26 -205
q-8 -47 -22.5 -90.5t-39 -86.5t-64.5 -69t-89 -26q-59 0 -102.5 53.5t-43.5 114.5v156q0 9 12.5 17.5t22.5 8.5z" />
    <glyph glyph-name="k" unicode="k" horiz-adv-x="579" 
d="M180 549l4 -549q0 -7 -11.5 -12.5t-20.5 -5.5q-13 0 -24 9.5t-11 22.5l-15 1018v354q7 17 14.5 22t24.5 5q31 0 31 -16l8 -748q11 6 19 21q92 128 137 362q36 208 31 352q0 17 10 27t24 10q10 0 17 -3.5t11 -10.5t7 -13.5t3.5 -17t1 -16.5t0 -16.5t-0.5 -12.5v-47
q-24 -208 -32 -256q0 -2 -10 -44t-20.5 -83.5t-15.5 -58.5q-21 -78 -55 -137l-45 -72q-1 -2 -10.5 -14t-11.5 -19q43 -38 77 -86t59.5 -108.5t41 -106.5t35.5 -117q24 -86 24 -133q0 -39 -35 -39q-17 0 -30 13q-6 9 -8.5 22.5t-3 30.5t-1.5 24l-32 117l-31 98
q-52 133 -96 181q-5 5 -18 18.5t-22 23t-10 9.5z" />
    <glyph glyph-name="l" unicode="l" horiz-adv-x="509" 
d="M135 117l-33 1288q0 12 13 18.5t26 6.5l11 -3l18 -16l37 -1290l6 -41h4q8 0 62 6t65 8h21q43 0 43 -35q0 -12 -10 -23t-23 -11l-158 -19h-20q-49 0 -54 37q-8 64 -8 74z" />
    <glyph glyph-name="m" unicode="m" horiz-adv-x="946" 
d="M174 1442q22 0 38.5 -22.5t20.5 -45.5l222 -1087q15 229 41.5 457.5t53 406t30.5 213.5q0 1 1 3t1 3t1 2t1 2q6 21 9.5 31.5t14 21.5t25.5 11q41 0 45 -56l166 -1286v-51q0 -2 -8.5 -8.5t-12.5 -7.5q-6 -2 -8 -2q-38 0 -41 36l-151 1190l-117 -1165q-1 -19 -3 -28.5
t-11 -19t-25 -9.5q-30 0 -33 28l-248 1205l-12 -1031q8 -92 8 -151v-19q0 -40 -30 -40t-37 32q-13 96 -13 178l17 1086l10 59q3 18 5.5 28.5t13 23t26.5 12.5z" />
    <glyph glyph-name="n" unicode="n" horiz-adv-x="724" 
d="M510 41l-342 1235q0 -61 5 -438t5 -439v-127q0 -109 15 -225q3 -21 -9 -34t-34 -13q-31 0 -35 41q-9 108 -9 209v133q1 37 -2 294t-0.5 483t17.5 274h4q18 5 33.5 -3t30.5 -34t28.5 -62.5t30.5 -96t33.5 -125.5t41 -160.5t50 -191.5t62.5 -228t77 -261l27 1047q0 3 2 20
t4.5 38.5t3.5 27.5q8 47 39 47q17 0 26 -10.5t9 -26.5v-10l-41 -1364q0 -14 -12 -21.5t-27 -7.5q-12 0 -22 8.5t-11 20.5z" />
    <glyph glyph-name="o" unicode="o" horiz-adv-x="727" 
d="M102 688q0 5 0.5 17t1 21.5t0.5 10.5q8 170 19 299q7 63 17.5 114t32.5 105t53 91t81 60.5t113 23.5q39 0 72.5 -20t55.5 -51.5t38.5 -71.5t25 -77.5t11.5 -72.5q0 -13 1 -90t1 -91q0 -20 -0.5 -63t-1 -79t-0.5 -38q0 -7 -1 -21.5t-1 -21.5q-5 -96 -9 -148.5t-11 -134.5
t-15.5 -127.5t-22 -105.5t-31.5 -92.5t-42 -65t-56 -46t-72 -13.5q-57 0 -96 31q-50 39 -85.5 122t-51 186t-21.5 186t-6 163zM176 686q0 -70 5 -145t19 -172.5t45.5 -175t76.5 -111.5q12 -8 43 -8q83 0 129 176q19 65 31 175.5t16 175t9 223t5 167.5v39q0 34 -1 58.5
t-4.5 62.5t-12 66t-22 57.5t-35.5 50t-52 31.5h-4q-40 0 -73.5 -12.5t-56 -32t-40.5 -51t-28.5 -60.5t-18 -69.5t-11 -70t-6.5 -69.5l-14 -254v-51z" />
    <glyph glyph-name="p" unicode="p" horiz-adv-x="581" 
d="M137 37q-45 613 -31 1345q0 16 21 34t37 18h115q25 0 81 -29q119 -64 119 -272q0 -225 -145 -359q-5 -5 -47 -33q-8 -5 -54.5 -29.5t-54.5 -29.5l29 -608v-15q0 -41 -39 -41h-12q-3 2 -11 10t-8 9zM279 1360h-101q-15 -373 0 -592q4 0 6 2l35 16q189 105 189 349
q0 171 -101 217q-3 1 -10 3t-12 3.5t-6 1.5z" />
    <glyph glyph-name="q" unicode="q" horiz-adv-x="745" 
d="M377 0q-51 0 -92 21.5t-68 54.5t-47 85.5t-30 102t-17.5 116.5t-10 116t-5.5 114.5t-5 98.5q0 244 27 342l6 24q34 150 64 212q66 136 198 136q211 0 240 -403q0 -56 3 -111.5t3 -87.5q0 -433 -92 -669v-11q2 -3 30.5 -26.5t30.5 -42.5q0 -12 -9 -22.5t-21 -10.5
q-16 0 -37.5 16t-32.5 19q-27 -25 -42 -37.5t-40.5 -24.5t-52.5 -12zM182 920q-8 -122 -8 -189q3 -252 47 -487q13 -64 52 -117t96 -53q26 0 50.5 15t31.5 40q-7 8 -40 42.5t-47 54.5t-14 36q0 14 8.5 24.5t22.5 10.5q19 0 54 -46t50 -46q29 70 46 155t22.5 143.5
t11.5 168.5l4 53q0 52 -3 159t-3 130q0 2 -1 7.5t-1 8.5q-22 328 -164 328q-37 0 -67.5 -19t-51.5 -54t-36.5 -72t-26 -86t-16 -82.5t-10.5 -74.5t-7 -50z" />
    <glyph glyph-name="r" unicode="r" horiz-adv-x="632" 
d="M121 31q-10 156 -19 456v172q0 325 7 707q0 16 22 33q1 0 2 1t2 1q93 26 144 26q77 0 139 -38q69 -40 90.5 -105t21.5 -166q0 -258 -280 -342q39 -41 71 -90t55.5 -109.5t40 -110.5t32 -126.5t23 -121t20.5 -128.5l6 -37q3 -20 -5 -34.5t-30 -14.5q-32 0 -35 23
q-90 588 -248 714l-4 -41q-2 -6 -2 -92q0 -90 9.5 -286.5t9.5 -286.5q0 -35 -37 -35q-17 0 -24.5 7t-10.5 24zM279 1354q-15 0 -57 -8t-42 -15v-477q6 -2 10 -2h25q39 0 115 39q129 67 129 233q0 72 -12.5 116.5t-57.5 80.5q-42 33 -110 33z" />
    <glyph glyph-name="s" unicode="s" 
d="M119 248q0 41 31 41q12 0 22 -13l8 -8q8 -31 18 -59.5t27 -62t43 -54t56 -20.5q40 0 68 29t28 69q0 54 -25 109l-205 436q-88 196 -88 358q0 57 16 119t45.5 119t80.5 94t114 37q81 0 123.5 -66.5t42.5 -150.5q0 -64 -16 -133q-6 -19 -33 -19q-35 0 -35 35q0 20 5.5 58
t5.5 57q0 55 -22.5 100t-72.5 45q-45 0 -81.5 -33t-57 -82t-31 -97.5t-10.5 -86.5q0 -61 15 -134.5t40 -125.5q173 -372 217 -481.5t44 -159.5q0 -69 -49.5 -118.5t-118.5 -49.5q-119 0 -183 160q-22 50 -22 88z" />
    <glyph glyph-name="t" unicode="t" horiz-adv-x="663" 
d="M301 31q-12 159 -19.5 344.5t-9 312t-3.5 330t-3 293.5l-4 22h-6q-11 -3 -45.5 -10t-36.5 -8q-7 -2 -15.5 -8.5t-19.5 -6.5q-15 0 -26 13t-11 28q0 22 27 37q164 41 274 41h9q10 0 40 -2t31 -2h6q15 -2 24 -4t22 -7t19.5 -14t6.5 -22q0 -17 -12 -29t-27 -12h-10
q-28 14 -29 14q-17 5 -80 5q-21 0 -55 -5q-6 -3 -10 -14q0 -25 1 -148t1 -149v-338q1 -68 12.5 -315t16.5 -320v-14q0 -37 -37 -37q-11 0 -20.5 7.5t-10.5 17.5z" />
    <glyph glyph-name="u" unicode="u" horiz-adv-x="657" 
d="M102 737v135q4 160 23 517q4 57 43 57q15 0 24 -10t9 -27q0 -1 -1 -7.5t-1 -8.5q-3 -130 -23 -512v-299l8 -160l15 -100q0 -2 1 -6.5t1 -6.5q7 -41 14.5 -71t23.5 -70.5t42.5 -63t60.5 -22.5h25q42 10 77 162q24 167 30.5 334.5t6.5 402.5q0 260 -6 412q13 39 39 39
q31 0 35 -39q6 -99 6 -226v-174q0 -338 -8 -514l-19 -186q-4 -33 -9 -58t-14 -61.5t-22 -62.5t-31.5 -51.5t-45.5 -38.5t-60 -13q-73 0 -115 37q-48 42 -81 166q-30 116 -39 237.5t-9 288.5z" />
    <glyph glyph-name="v" unicode="v" horiz-adv-x="679" 
d="M305 41q-203 1303 -203 1323q0 63 39 63q10 0 22.5 -8t12.5 -18l156 -1131l6 15l166 1101q4 37 35 37q15 0 27 -7t12 -23v-2l-193 -1350q-9 -43 -39 -43q-16 0 -26.5 13.5t-14.5 29.5z" />
    <glyph glyph-name="w" unicode="w" horiz-adv-x="978" 
d="M102 1376q0 56 39 56h15q5 -1 12.5 -9t7.5 -10v-43l156 -1085l6 8l106 1096q3 32 35 32q33 0 39 -22l178 -1106l107 1091v2q3 15 5.5 24t11.5 17.5t22 8.5t24 -11.5t11 -25.5v-6l-115 -1348q-4 -43 -37 -43q-43 0 -51 61l-182 1055l-103 -1063q-13 -65 -45 -65
q-15 0 -26.5 9t-12.5 24l-203 1351v2z" />
    <glyph glyph-name="x" unicode="x" horiz-adv-x="704" 
d="M170 41v8l154 586l-158 569q-2 7 -18.5 54t-31 90t-14.5 47q0 37 33 37q23 0 39 -17.5t23 -42.5l163 -584q9 3 9 19l153 573q10 41 45 41q26 0 33.5 -25t-10.5 -44l-189 -715v-6q0 -2 2.5 -12t2.5 -11l169 -569v-4q0 -15 -9.5 -25t-24.5 -10q-28 0 -39 29l-142 458
l-120 -460q-3 -11 -13 -18t-22 -7q-14 0 -24.5 12.5t-10.5 26.5z" />
    <glyph glyph-name="y" unicode="y" horiz-adv-x="651" 
d="M295 817l-193 559v13q0 41 33 41q26 0 37 -29l166 -496l133 490q11 37 45 37q14 0 23.5 -10t9.5 -25v-2l-189 -627v-53l29 -643v-19q0 -41 -37 -41q-11 0 -21.5 6.5t-11.5 18.5z" />
    <glyph glyph-name="z" unicode="z" horiz-adv-x="534" 
d="M117 43v12l237 1278v15q-17 2 -106.5 -2.5t-104.5 -2.5q-24 3 -32.5 10t-8.5 29q0 20 6.5 27.5t26.5 7.5h246q51 -7 51 -55l-2 -14l-233 -1276h170q12 0 22 -9.5t10 -21.5q0 -7 -1.5 -14.5t-6.5 -15t-12 -7.5h-229q-16 0 -24.5 12.5t-8.5 26.5z" />
    <glyph glyph-name="Agrave" unicode="&#xc0;" 
d="M399 281q-229 0 -229 -35v-191q0 -8 -12.5 -18t-20.5 -10q-12 0 -23.5 8.5t-11.5 19.5v297q62 729 97 926q0 2 3.5 21.5t6 29t7.5 29t10.5 31t13 24.5t17.5 19t22 6q34 0 62 -86t71.5 -376t105.5 -839q1 -2 2 -15t2 -28.5t2 -21.5q0 -58 -32 -58q-11 0 -22.5 6t-12.5 17
l-25 239q-2 5 -8 5h-25zM170 342q0 -10 6 -12q6 2 76 14q15 2 57.5 4t75.5 3.5t33 4.5v31l-133 924l-6 -4q0 1 -1.5 -7t-4.5 -27.5t-7 -48.5t-10 -73.5t-12.5 -98.5t-14.5 -128t-17 -157t-19 -190.5t-21 -224.5q-2 -8 -2 -10zM371 1571q0 -15 -9 -25t-24 -10q-39 0 -98.5 64
t-59.5 92t9.5 35.5t39.5 7.5q-2 0 33 -35t72 -76t37 -53z" />
    <glyph glyph-name="Aacute" unicode="&#xc1;" 
d="M399 281q-229 0 -229 -35v-191q0 -8 -12.5 -18t-20.5 -10q-12 0 -23.5 8.5t-11.5 19.5v297q62 729 97 926q0 2 3.5 21.5t6 29t7.5 29t10.5 31t13 24.5t17.5 19t22 6q34 0 62 -86t71.5 -376t105.5 -839q1 -2 2 -15t2 -28.5t2 -21.5q0 -58 -32 -58q-11 0 -22.5 6t-12.5 17
l-25 239q-2 5 -8 5h-25zM170 342q0 -10 6 -12q6 2 76 14q15 2 57.5 4t75.5 3.5t33 4.5v31l-133 924l-6 -4q0 1 -1.5 -7t-4.5 -27.5t-7 -48.5t-10 -73.5t-12.5 -98.5t-14.5 -128t-17 -157t-19 -190.5t-21 -224.5q-2 -8 -2 -10zM180 1571q0 12 37 53t72 76t33 35
q30 0 39.5 -7.5t9.5 -35.5t-59.5 -92t-98.5 -64q-15 0 -24 10t-9 25z" />
    <glyph glyph-name="Acircumflex" unicode="&#xc2;" 
d="M399 281q-229 0 -229 -35v-191q0 -8 -12.5 -18t-20.5 -10q-12 0 -23.5 8.5t-11.5 19.5v297q62 729 97 926q0 2 3.5 21.5t6 29t7.5 29t10.5 31t13 24.5t17.5 19t22 6q34 0 62 -86t71.5 -376t105.5 -839q1 -2 2 -15t2 -28.5t2 -21.5q0 -58 -32 -58q-11 0 -22.5 6t-12.5 17
l-25 239q-2 5 -8 5h-25zM170 342q0 -10 6 -12q6 2 76 14q15 2 57.5 4t75.5 3.5t33 4.5v31l-133 924l-6 -4q0 1 -1.5 -7t-4.5 -27.5t-7 -48.5t-10 -73.5t-12.5 -98.5t-14.5 -128t-17 -157t-19 -190.5t-21 -224.5q-2 -8 -2 -10zM440 1567q0 -13 -6 -19.5t-26 -7.5
q-25 -2 -78 43t-54 45l-88 -80q-13 -10 -41 -14h-6q-17 -2 -25 7.5t3 29.5l114 110q19 19 33 19q7 1 12.5 0.5t10.5 -2.5t7.5 -4t8 -5.5t8.5 -5.5q2 -6 33.5 -26t61.5 -45t32 -45zM313 1683v3q2 -1 2 -3h-2z" />
    <glyph glyph-name="Atilde" unicode="&#xc3;" 
d="M399 281q-229 0 -229 -35v-191q0 -8 -12.5 -18t-20.5 -10q-12 0 -23.5 8.5t-11.5 19.5v297q62 729 97 926q0 2 3.5 21.5t6 29t7.5 29t10.5 31t13 24.5t17.5 19t22 6q34 0 62 -86t71.5 -376t105.5 -839q1 -2 2 -15t2 -28.5t2 -21.5q0 -58 -32 -58q-11 0 -22.5 6t-12.5 17
l-25 239q-2 5 -8 5h-25zM170 342q0 -10 6 -12q6 2 76 14q15 2 57.5 4t75.5 3.5t33 4.5v31l-133 924l-6 -4q0 1 -1.5 -7t-4.5 -27.5t-7 -48.5t-10 -73.5t-12.5 -98.5t-14.5 -128t-17 -157t-19 -190.5t-21 -224.5q-2 -8 -2 -10zM70 1565q0 54 43.5 109t97.5 55q28 0 45 -17
l80 -80q17 -20 53 -20q16 0 22.5 14t7 31t9.5 31t29 14q16 0 25.5 -11.5t9.5 -27.5q0 -54 -26.5 -88.5t-76.5 -34.5q-19 0 -38.5 6t-32 11.5t-32 21.5t-26.5 22.5t-28 28t-25 25.5q-18 0 -31.5 -21.5t-20.5 -47t-20 -47t-29 -21.5q-36 0 -36 47z" />
    <glyph glyph-name="Adieresis" unicode="&#xc4;" 
d="M399 281q-229 0 -229 -35v-191q0 -8 -12.5 -18t-20.5 -10q-12 0 -23.5 8.5t-11.5 19.5v297q62 729 97 926q0 2 3.5 21.5t6 29t7.5 29t10.5 31t13 24.5t17.5 19t22 6q34 0 62 -86t71.5 -376t105.5 -839q1 -2 2 -15t2 -28.5t2 -21.5q0 -58 -32 -58q-11 0 -22.5 6t-12.5 17
l-25 239q-2 5 -8 5h-25zM170 342q0 -10 6 -12q6 2 76 14q15 2 57.5 4t75.5 3.5t33 4.5v31l-133 924l-6 -4q0 1 -1.5 -7t-4.5 -27.5t-7 -48.5t-10 -73.5t-12.5 -98.5t-14.5 -128t-17 -157t-19 -190.5t-21 -224.5q-2 -8 -2 -10zM84 1577q2 25 18 46.5t48 21.5h4q1 0 6 -1.5
t6 -1.5q28 -19 36 -30.5t7 -34.5q-4 -64 -64 -64q-32 0 -47.5 18.5t-13.5 45.5zM326 1581q2 26 17.5 47t47.5 21h4q1 0 6.5 -1t6.5 -1q27 -19 35.5 -31t7.5 -35q-4 -63 -64 -63q-32 0 -47.5 18t-13.5 45z" />
    <glyph glyph-name="Aring" unicode="&#xc5;" 
d="M399 281q-229 0 -229 -35v-191q0 -8 -12.5 -18t-20.5 -10q-12 0 -23.5 8.5t-11.5 19.5v297q62 729 97 926q0 2 3.5 21.5t6 29t7.5 29t10.5 31t13 24.5t17.5 19t22 6q34 0 62 -86t71.5 -376t105.5 -839q1 -2 2 -15t2 -28.5t2 -21.5q0 -58 -32 -58q-11 0 -22.5 6t-12.5 17
l-25 239q-2 5 -8 5h-25zM170 342q0 -10 6 -12q6 2 76 14q15 2 57.5 4t75.5 3.5t33 4.5v31l-133 924l-6 -4q0 1 -1.5 -7t-4.5 -27.5t-7 -48.5t-10 -73.5t-12.5 -98.5t-14.5 -128t-17 -157t-19 -190.5t-21 -224.5q-2 -8 -2 -10zM152 1649q0 127 124 127q65 0 98.5 -30
t33.5 -73q0 -50 -39 -91.5t-99 -41.5q-52 0 -85 29t-33 80zM274 1716q-30 0 -46.5 -17t-16.5 -40q0 -22 15 -41t38 -19q33 0 51.5 18.5t18.5 43.5q0 23 -15.5 39t-44.5 16z" />
    <glyph glyph-name="AE" unicode="&#xc6;" horiz-adv-x="901" 
d="M465 539h-43l-184 -25q-11 -71 -37.5 -263.5t-26.5 -219.5q0 -14 -9 -22.5t-24 -8.5q-39 0 -39 27q35 384 98.5 663.5t157.5 519.5q5 9 29.5 74.5t53.5 111.5t61 46q23 -1 68.5 -1t80.5 -1t71 -4t56.5 -13t20.5 -26q0 -37 -35 -37q-11 0 -19 4q-13 1 -86.5 1t-87.5 1
q-2 0 -15 -1t-15 -1v-746q5 0 52.5 1.5t68.5 1.5q5 0 14 0.5t32 -1t40.5 -5t32 -12.5t14.5 -23q0 -33 -43 -33q-20 0 -57.5 2t-55.5 2q-63 0 -98 -4v-156q0 -15 -1 -56.5t-1.5 -78.5t0 -76.5t3.5 -64t9 -27.5q33 -1 96.5 6.5t91.5 7.5q25 0 36 -6t11 -24q0 -12 -9.5 -24
t-22.5 -13q-37 -3 -92 -10.5t-94.5 -14t-41.5 -6.5q-19 0 -33 16.5t-14 36.5zM475 1335q-10 -29 -56 -157.5t-70 -202t-54 -188t-41 -201.5l211 26z" />
    <glyph glyph-name="Ccedilla" unicode="&#xc7;" horiz-adv-x="688" 
d="M289 -338q0 23 8 29l94 63q21 14 21 31q0 29 -9.5 41.5t-23.5 12t-30.5 5t-30.5 18t-23.5 54t-9.5 109.5v14q-55 25 -93.5 93.5t-56 160.5t-24.5 171.5t-7 160.5q0 188 15 272q0 2 1 6.5t1 7.5q54 502 285 502q86 0 133 -62t47 -153q0 -41 -33 -41q-18 0 -27 19t-13.5 46
t-12 54t-31 46t-63.5 19q-31 0 -58 -16t-44 -37t-33.5 -56t-24 -57.5t-17.5 -56.5q-53 -190 -53 -493q0 -56 12 -215q4 -30 10 -60.5t19.5 -79t30 -84t43 -62t57.5 -26.5q42 0 65.5 28t30.5 68t11.5 80.5t15 68.5t33.5 28q33 0 33 -35q0 -47 -9 -96t-28.5 -97t-55.5 -80
t-84 -36l11 -109q50 -8 82 -45t32 -88q0 -52 -62.5 -105t-100.5 -53q-33 0 -33 35z" />
    <glyph glyph-name="Egrave" unicode="&#xc8;" horiz-adv-x="532" 
d="M104 137q0 30 -1 187t-1 184q0 210 6.5 461t6.5 383q0 43 32 51q176 18 230 18q29 0 41 -8t12 -27q0 -11 -6.5 -21.5t-17.5 -10.5l-209 -17l-11 -4q0 -51 -12 -450q0 -8 1 -54.5t1 -54.5h8q78 17 129 23h6q20 0 29 -1t17 -8t8 -22q0 -26 -49.5 -38t-99.5 -17.5t-50 -14.5
v-559l4 -57h8q7 0 100 24.5t107 24.5q33 0 33 -35q0 -36 -29 -39l-194 -47q-35 0 -55.5 8t-29.5 29t-11 37.5t-3 54.5zM358 1567q0 -15 -8.5 -25t-23.5 -10q-39 0 -98.5 64t-59.5 92t9.5 35.5t39.5 7.5q-2 0 32.5 -35t71.5 -76t37 -53z" />
    <glyph glyph-name="Eacute" unicode="&#xc9;" horiz-adv-x="532" 
d="M104 137q0 30 -1 187t-1 184q0 210 6.5 461t6.5 383q0 43 32 51q176 18 230 18q29 0 41 -8t12 -27q0 -11 -6.5 -21.5t-17.5 -10.5l-209 -17l-11 -4q0 -51 -12 -450q0 -8 1 -54.5t1 -54.5h8q78 17 129 23h6q20 0 29 -1t17 -8t8 -22q0 -26 -49.5 -38t-99.5 -17.5t-50 -14.5
v-559l4 -57h8q7 0 100 24.5t107 24.5q33 0 33 -35q0 -36 -29 -39l-194 -47q-35 0 -55.5 8t-29.5 29t-11 37.5t-3 54.5zM168 1567q0 12 37 53t71.5 76t32.5 35q30 0 39.5 -7.5t9.5 -35.5t-59 -92t-98 -64q-15 0 -24 10t-9 25z" />
    <glyph glyph-name="Ecircumflex" unicode="&#xca;" horiz-adv-x="532" 
d="M104 137q0 30 -1 187t-1 184q0 210 6.5 461t6.5 383q0 43 32 51q176 18 230 18q29 0 41 -8t12 -27q0 -11 -6.5 -21.5t-17.5 -10.5l-209 -17l-11 -4q0 -51 -12 -450q0 -8 1 -54.5t1 -54.5h8q78 17 129 23h6q20 0 29 -1t17 -8t8 -22q0 -26 -49.5 -38t-99.5 -17.5t-50 -14.5
v-559l4 -57h8q7 0 100 24.5t107 24.5q33 0 33 -35q0 -36 -29 -39l-194 -47q-35 0 -55.5 8t-29.5 29t-11 37.5t-3 54.5zM428 1563q0 -13 -6.5 -19.5t-26.5 -7.5q-25 -2 -77.5 43t-53.5 45l-88 -80q-13 -10 -41 -14h-6q-17 -2 -25.5 7.5t2.5 29.5l115 110q19 19 33 19
q7 1 12.5 0.5t10.5 -2.5t7.5 -4t8 -5.5t8.5 -5.5q2 -6 33.5 -26t61.5 -45t32 -45zM301 1679v2q2 0 2 -2h-2z" />
    <glyph glyph-name="Edieresis" unicode="&#xcb;" horiz-adv-x="532" 
d="M104 137q0 30 -1 187t-1 184q0 210 6.5 461t6.5 383q0 43 32 51q176 18 230 18q29 0 41 -8t12 -27q0 -11 -6.5 -21.5t-17.5 -10.5l-209 -17l-11 -4q0 -51 -12 -450q0 -8 1 -54.5t1 -54.5h8q78 17 129 23h6q20 0 29 -1t17 -8t8 -22q0 -26 -49.5 -38t-99.5 -17.5t-50 -14.5
v-559l4 -57h8q7 0 100 24.5t107 24.5q33 0 33 -35q0 -36 -29 -39l-194 -47q-35 0 -55.5 8t-29.5 29t-11 37.5t-3 54.5zM313 1577q2 25 18 46.5t48 21.5h4q1 0 6 -1.5t6 -1.5q28 -19 36 -30.5t7 -34.5q-4 -64 -63 -64q-32 0 -48 18.5t-14 45.5zM72 1573q2 25 17.5 46t47.5 21
h4q1 0 6.5 -1t6.5 -1q28 -19 36 -30.5t7 -34.5q-4 -64 -64 -64q-32 0 -47.5 18.5t-13.5 45.5z" />
    <glyph glyph-name="Igrave" unicode="&#xcc;" horiz-adv-x="364" 
d="M102 78v14l84 1262q4 45 35 45q41 0 41 -35q0 -1 -2 -8t-2 -8l-88 -1297q-3 -18 -35 -18q-33 0 -33 45zM322 1559q0 -15 -9 -25t-24 -10q-39 0 -98.5 63.5t-59.5 91.5t9.5 35.5t39.5 7.5q-2 0 33 -34.5t72 -75.5t37 -53z" />
    <glyph glyph-name="Iacute" unicode="&#xcd;" horiz-adv-x="364" 
d="M102 78v14l84 1262q4 45 35 45q41 0 41 -35q0 -1 -2 -8t-2 -8l-88 -1297q-3 -18 -35 -18q-33 0 -33 45zM131 1559q0 12 37 53t71.5 75.5t32.5 34.5q31 0 40.5 -7.5t9.5 -35.5t-59.5 -91.5t-98.5 -63.5q-15 0 -24 10t-9 25z" />
    <glyph glyph-name="Icircumflex" unicode="&#xce;" horiz-adv-x="364" 
d="M102 78v14l84 1262q4 45 35 45q41 0 41 -35q0 -1 -2 -8t-2 -8l-88 -1297q-3 -18 -35 -18q-33 0 -33 45zM391 1554q0 -13 -6.5 -19t-26.5 -7q-25 -2 -77.5 43t-53.5 45l-88 -80q-13 -10 -41 -14h-6q-17 -2 -25 7.5t3 29.5l114 110q19 19 33 19q7 1 12.5 0.5t10.5 -2.5
t7.5 -4t8 -5.5t8.5 -5.5q2 -6 33.5 -26t61.5 -45.5t32 -45.5zM264 1671v2q2 0 2 -2h-2z" />
    <glyph glyph-name="Idieresis" unicode="&#xcf;" horiz-adv-x="364" 
d="M102 78v14l84 1262q4 45 35 45q41 0 41 -35q0 -1 -2 -8t-2 -8l-88 -1297q-3 -18 -35 -18q-33 0 -33 45zM276 1569q2 25 18 46t48 21h4q1 0 6 -1t6 -1q28 -19 36 -30.5t7 -34.5q-4 -64 -63 -64q-32 0 -48 18.5t-14 45.5zM35 1565q2 25 17.5 46t47.5 21h4q1 0 6.5 -1
t6.5 -1q28 -19 36 -30.5t7 -34.5q-4 -64 -64 -64q-32 0 -47.5 18.5t-13.5 45.5z" />
    <glyph glyph-name="Ntilde" unicode="&#xd1;" horiz-adv-x="610" 
d="M119 51q-17 970 -15 1006q1 28 2.5 67t2.5 68t2.5 62t4 55.5t6.5 42t10 29t15 8.5q8 0 20 -8.5t13 -16.5l250 -1022l12 1022q0 3 6 10t11 10q15 0 22.5 -0.5t17 -8t9.5 -21.5v-250q0 -103 -4 -150v-862q0 -59 -39 -59q-11 0 -20.5 8t-10.5 20l-266 1065q-2 -156 7 -473.5
t9 -435.5q0 -14 1.5 -46t1.5 -51t-3 -42t-12 -34t-25 -11h-4q-18 0 -24 18zM106 1528q0 54 44 109t98 55q28 0 45 -17l80 -80q17 -20 53 -20q16 0 22.5 14t7 31t9.5 31t29 14q16 0 25 -11.5t9 -27.5q0 -54 -26 -88.5t-76 -34.5q-19 0 -38.5 6t-32 11.5t-32 21.5t-26.5 22.5
t-28 28t-25 25.5q-18 0 -31.5 -21.5t-20.5 -47t-20 -47t-29 -21.5q-37 0 -37 47z" />
    <glyph glyph-name="Ograve" unicode="&#xd2;" horiz-adv-x="729" 
d="M104 633v10q0 434 87 623q75 162 210 155q45 -2 81 -23.5t59.5 -52t40.5 -78.5t25.5 -90t13 -101.5t5.5 -98.5t1 -94q0 -295 -56 -559q-11 -49 -20.5 -83t-29.5 -82.5t-43 -78.5t-59.5 -52t-80.5 -22q-38 0 -69.5 15.5t-54.5 38t-41 62t-29.5 74t-19.5 87t-11.5 88.5
t-6 91.5t-2.5 82.5v74v14zM176 479l17 -160q3 -9 9.5 -43t15 -64t22.5 -62.5t39 -52t59 -19.5q45 0 78 38t47 81.5t26.5 93.5t16.5 59q33 202 41 298t8 251v8q0 447 -166 447q-28 0 -51 -13q-53 -29 -88.5 -117t-50.5 -207.5t-20 -210t-5 -183.5q0 -124 2 -144zM489 1559
q0 -15 -8.5 -25t-23.5 -10q-39 0 -98.5 63.5t-59.5 91.5t9.5 35.5t39.5 7.5q-2 0 32.5 -34.5t71.5 -75.5t37 -53z" />
    <glyph glyph-name="Oacute" unicode="&#xd3;" horiz-adv-x="729" 
d="M104 633v10q0 434 87 623q75 162 210 155q45 -2 81 -23.5t59.5 -52t40.5 -78.5t25.5 -90t13 -101.5t5.5 -98.5t1 -94q0 -295 -56 -559q-11 -49 -20.5 -83t-29.5 -82.5t-43 -78.5t-59.5 -52t-80.5 -22q-38 0 -69.5 15.5t-54.5 38t-41 62t-29.5 74t-19.5 87t-11.5 88.5
t-6 91.5t-2.5 82.5v74v14zM176 479l17 -160q3 -9 9.5 -43t15 -64t22.5 -62.5t39 -52t59 -19.5q45 0 78 38t47 81.5t26.5 93.5t16.5 59q33 202 41 298t8 251v8q0 447 -166 447q-28 0 -51 -13q-53 -29 -88.5 -117t-50.5 -207.5t-20 -210t-5 -183.5q0 -124 2 -144zM299 1559
q0 12 37 53t71.5 75.5t32.5 34.5q30 0 39.5 -7.5t9.5 -35.5t-59 -91.5t-98 -63.5q-15 0 -24 10t-9 25z" />
    <glyph glyph-name="Ocircumflex" unicode="&#xd4;" horiz-adv-x="729" 
d="M104 633v10q0 434 87 623q75 162 210 155q45 -2 81 -23.5t59.5 -52t40.5 -78.5t25.5 -90t13 -101.5t5.5 -98.5t1 -94q0 -295 -56 -559q-11 -49 -20.5 -83t-29.5 -82.5t-43 -78.5t-59.5 -52t-80.5 -22q-38 0 -69.5 15.5t-54.5 38t-41 62t-29.5 74t-19.5 87t-11.5 88.5
t-6 91.5t-2.5 82.5v74v14zM176 479l17 -160q3 -9 9.5 -43t15 -64t22.5 -62.5t39 -52t59 -19.5q45 0 78 38t47 81.5t26.5 93.5t16.5 59q33 202 41 298t8 251v8q0 447 -166 447q-28 0 -51 -13q-53 -29 -88.5 -117t-50.5 -207.5t-20 -210t-5 -183.5q0 -124 2 -144zM559 1554
q0 -13 -6.5 -19t-26.5 -7q-25 -2 -77.5 43t-53.5 45l-88 -80q-13 -10 -41 -14h-6q-17 -2 -25 7.5t3 29.5l114 110q19 19 33 19q7 1 12.5 0.5t10.5 -2.5t7.5 -4t8 -5.5t8.5 -5.5q2 -6 33.5 -26t61.5 -45.5t32 -45.5zM432 1671v2q2 0 2 -2h-2z" />
    <glyph glyph-name="Otilde" unicode="&#xd5;" horiz-adv-x="729" 
d="M104 633v10q0 434 87 623q75 162 210 155q45 -2 81 -23.5t59.5 -52t40.5 -78.5t25.5 -90t13 -101.5t5.5 -98.5t1 -94q0 -295 -56 -559q-11 -49 -20.5 -83t-29.5 -82.5t-43 -78.5t-59.5 -52t-80.5 -22q-38 0 -69.5 15.5t-54.5 38t-41 62t-29.5 74t-19.5 87t-11.5 88.5
t-6 91.5t-2.5 82.5v74v14zM176 479l17 -160q3 -9 9.5 -43t15 -64t22.5 -62.5t39 -52t59 -19.5q45 0 78 38t47 81.5t26.5 93.5t16.5 59q33 202 41 298t8 251v8q0 447 -166 447q-28 0 -51 -13q-53 -29 -88.5 -117t-50.5 -207.5t-20 -210t-5 -183.5q0 -124 2 -144zM188 1552
q0 54 44 109t98 55q29 0 45 -16l80 -80q18 -21 53 -21q16 0 22.5 14t6.5 31.5t9 31.5t29 14q16 0 25.5 -11.5t9.5 -27.5q0 -54 -26 -88.5t-76 -34.5q-17 0 -32 3t-30.5 11t-26 14t-26 20t-22.5 20.5t-23.5 23.5t-21.5 22q-18 0 -31.5 -21.5t-20.5 -47t-20 -47t-29 -21.5
q-37 0 -37 47z" />
    <glyph glyph-name="Odieresis" unicode="&#xd6;" horiz-adv-x="729" 
d="M104 633v10q0 434 87 623q75 162 210 155q45 -2 81 -23.5t59.5 -52t40.5 -78.5t25.5 -90t13 -101.5t5.5 -98.5t1 -94q0 -295 -56 -559q-11 -49 -20.5 -83t-29.5 -82.5t-43 -78.5t-59.5 -52t-80.5 -22q-38 0 -69.5 15.5t-54.5 38t-41 62t-29.5 74t-19.5 87t-11.5 88.5
t-6 91.5t-2.5 82.5v74v14zM176 479l17 -160q3 -9 9.5 -43t15 -64t22.5 -62.5t39 -52t59 -19.5q45 0 78 38t47 81.5t26.5 93.5t16.5 59q33 202 41 298t8 251v8q0 447 -166 447q-28 0 -51 -13q-53 -29 -88.5 -117t-50.5 -207.5t-20 -210t-5 -183.5q0 -124 2 -144zM203 1565
q2 25 17.5 46t47.5 21h4q1 0 6.5 -1t6.5 -1q28 -19 36 -30.5t7 -34.5q-4 -64 -64 -64q-32 0 -47.5 18.5t-13.5 45.5zM444 1569q2 25 18 46t48 21h4q1 0 6 -1t6 -1q28 -19 36 -30.5t7 -34.5q-4 -64 -63 -64q-32 0 -48 18.5t-14 45.5z" />
    <glyph glyph-name="Oslash" unicode="&#xd8;" horiz-adv-x="729" 
d="M168 49v8l10 56q-26 48 -42.5 112t-22.5 142t-7.5 125.5t-1.5 121.5v19v10q0 434 87 623q75 162 210 155q46 -3 84 -24q8 24 37 24q18 0 28.5 -8.5t10.5 -23.5q0 -20 -12 -37l-4 -13q36 -52 55.5 -141t23 -155t3.5 -160q0 -295 -56 -559q-11 -49 -20.5 -83t-29.5 -82.5
t-43 -78.5t-59.5 -52t-80.5 -22q-55 0 -100 33q-10 -27 -35 -27q-13 0 -24 11.5t-11 25.5zM555 907q0 205 -37 318l-264 -1102q33 -45 84 -45q45 0 78 38t47 81.5t26.5 93.5t16.5 59q33 202 41 298t8 251v8zM176 479l17 -160q0 -2 14 -67l260 1067q-30 35 -78 35
q-28 0 -51 -13q-53 -29 -88.5 -117t-50.5 -207.5t-20 -210t-5 -183.5q0 -124 2 -144z" />
    <glyph glyph-name="Ugrave" unicode="&#xd9;" horiz-adv-x="714" 
d="M102 743q0 8 1 37.5t1 30.5l27 584q3 26 37 26h14q3 -1 10 -8.5t7 -9.5v-64q0 -7 -1 -20.5t-1 -20.5q-21 -349 -21 -557q0 -7 0.5 -24t1.5 -31v-14q9 -191 21 -305q0 -3 1 -8.5t1 -8.5q6 -37 10.5 -59.5t14.5 -59t23 -60t31.5 -47.5t46 -36t60.5 -12q89 0 125 203
q1 5 4.5 28.5t6.5 44.5t3 27q13 585 13 627v198q0 31 -6.5 93.5t-6.5 91.5q0 14 10.5 26t24.5 12q28 0 37 -43q14 -86 14 -301v-77l-14 -627q-1 -40 -7 -84t-21 -98t-37 -96t-59.5 -70.5t-84.5 -28.5q-60 0 -106.5 26.5t-73 65t-46 96t-27 104t-13.5 105.5q-8 63 -19 275
l-1 30q-1 30 -1 39zM440 1559q0 -15 -8.5 -25t-23.5 -10q-39 0 -98.5 63.5t-59.5 91.5t9.5 35.5t39.5 7.5q-2 0 32.5 -34.5t71.5 -75.5t37 -53z" />
    <glyph glyph-name="Uacute" unicode="&#xda;" horiz-adv-x="714" 
d="M102 743q0 8 1 37.5t1 30.5l27 584q3 26 37 26h14q3 -1 10 -8.5t7 -9.5v-64q0 -7 -1 -20.5t-1 -20.5q-21 -349 -21 -557q0 -7 0.5 -24t1.5 -31v-14q9 -191 21 -305q0 -3 1 -8.5t1 -8.5q6 -37 10.5 -59.5t14.5 -59t23 -60t31.5 -47.5t46 -36t60.5 -12q89 0 125 203
q1 5 4.5 28.5t6.5 44.5t3 27q13 585 13 627v198q0 31 -6.5 93.5t-6.5 91.5q0 14 10.5 26t24.5 12q28 0 37 -43q14 -86 14 -301v-77l-14 -627q-1 -40 -7 -84t-21 -98t-37 -96t-59.5 -70.5t-84.5 -28.5q-60 0 -106.5 26.5t-73 65t-46 96t-27 104t-13.5 105.5q-8 63 -19 275
l-1 30q-1 30 -1 39zM250 1559q0 12 37 53t71.5 75.5t32.5 34.5q30 0 39.5 -7.5t9.5 -35.5t-59 -91.5t-98 -63.5q-15 0 -24 10t-9 25z" />
    <glyph glyph-name="Ucircumflex" unicode="&#xdb;" horiz-adv-x="714" 
d="M102 743q0 8 1 37.5t1 30.5l27 584q3 26 37 26h14q3 -1 10 -8.5t7 -9.5v-64q0 -7 -1 -20.5t-1 -20.5q-21 -349 -21 -557q0 -7 0.5 -24t1.5 -31v-14q9 -191 21 -305q0 -3 1 -8.5t1 -8.5q6 -37 10.5 -59.5t14.5 -59t23 -60t31.5 -47.5t46 -36t60.5 -12q89 0 125 203
q1 5 4.5 28.5t6.5 44.5t3 27q13 585 13 627v198q0 31 -6.5 93.5t-6.5 91.5q0 14 10.5 26t24.5 12q28 0 37 -43q14 -86 14 -301v-77l-14 -627q-1 -40 -7 -84t-21 -98t-37 -96t-59.5 -70.5t-84.5 -28.5q-60 0 -106.5 26.5t-73 65t-46 96t-27 104t-13.5 105.5q-8 63 -19 275
l-1 30q-1 30 -1 39zM510 1554q0 -13 -6.5 -19t-26.5 -7q-25 -2 -77.5 43t-53.5 45l-88 -80q-13 -10 -41 -14h-6q-17 -2 -25.5 7.5t2.5 29.5l115 110q19 19 33 19q7 1 12.5 0.5t10.5 -2.5t7.5 -4t8 -5.5t8.5 -5.5q2 -6 33.5 -26t61.5 -45.5t32 -45.5zM383 1671v2q2 0 2 -2h-2
z" />
    <glyph glyph-name="Udieresis" unicode="&#xdc;" horiz-adv-x="714" 
d="M102 743q0 8 1 37.5t1 30.5l27 584q3 26 37 26h14q3 -1 10 -8.5t7 -9.5v-64q0 -7 -1 -20.5t-1 -20.5q-21 -349 -21 -557q0 -7 0.5 -24t1.5 -31v-14q9 -191 21 -305q0 -3 1 -8.5t1 -8.5q6 -37 10.5 -59.5t14.5 -59t23 -60t31.5 -47.5t46 -36t60.5 -12q89 0 125 203
q1 5 4.5 28.5t6.5 44.5t3 27q13 585 13 627v198q0 31 -6.5 93.5t-6.5 91.5q0 14 10.5 26t24.5 12q28 0 37 -43q14 -86 14 -301v-77l-14 -627q-1 -40 -7 -84t-21 -98t-37 -96t-59.5 -70.5t-84.5 -28.5q-60 0 -106.5 26.5t-73 65t-46 96t-27 104t-13.5 105.5q-8 63 -19 275
l-1 30q-1 30 -1 39zM395 1569q2 25 18 46t48 21h4q1 0 6 -1t6 -1q28 -19 36 -30.5t7 -34.5q-4 -64 -63 -64q-32 0 -48 18.5t-14 45.5zM154 1565q2 25 17.5 46t47.5 21h4q1 0 6.5 -1t6.5 -1q28 -19 36 -30.5t7 -34.5q-4 -64 -64 -64q-32 0 -47.5 18.5t-13.5 45.5z" />
    <glyph glyph-name="germandbls" unicode="&#xdf;" horiz-adv-x="763" 
d="M371 37q0 19 16 28t40 10t52.5 7t52.5 16.5t40 40.5t16 78q0 143 -84 281q-13 21 -47.5 73t-52.5 82.5t-35 78.5t-17 91q0 53 22.5 111t49.5 101.5t49.5 101t22.5 108.5q0 56 -25 90.5t-78 34.5q-34 0 -65.5 -21.5t-54 -54.5t-41 -73.5t-28.5 -76.5t-14 -65
q-14 -108 -14 -364q0 -109 5 -326t5 -326q0 -16 -2 -26t-10.5 -18.5t-23.5 -8.5q-11 0 -22 7t-11 18l-4 59q-4 39 -11 434v390l11 133q6 59 25.5 123.5t52.5 126.5t85.5 102.5t114.5 40.5q89 0 133.5 -54.5t44.5 -146.5q0 -55 -22.5 -113.5t-49 -100.5t-49 -97t-22.5 -103
q0 -65 47 -143q14 -23 45 -75t45.5 -77.5t37.5 -71.5t33.5 -79t19 -78t8.5 -90q0 -215 -246 -215q-45 0 -45 37z" />
    <glyph glyph-name="agrave" unicode="&#xe0;" horiz-adv-x="653" 
d="M104 20q-14 646 123 1385q7 37 37 37q52 0 80 -111q0 -1 1 -4t1 -4q9 -27 35.5 -120t32.5 -120q13 -53 39.5 -188t29.5 -162l68 -651v-21q0 -47 -33 -47q-12 0 -23 10t-12 23l-28 293l-4 4h-60q-133 0 -213 -8q0 -7 -2 -48t-2 -48q-2 -22 -2 -105.5t2 -105.5
q-2 -12 -13 -21.5t-24 -9.5q-8 0 -20.5 6.5t-12.5 15.5zM283 1282l-4 6q-86 -494 -95 -878q4 0 31 1t31 1q45 0 200 10v14q0 13 -12.5 115.5t-19.5 146.5q-6 39 -30.5 170t-33.5 170q-10 47 -37 144t-30 100zM354 1579q0 -15 -8.5 -25t-23.5 -10q-39 0 -98.5 64t-59.5 92
t9.5 35.5t39.5 7.5q-2 0 32.5 -35t71.5 -76t37 -53z" />
    <glyph glyph-name="aacute" unicode="&#xe1;" horiz-adv-x="653" 
d="M104 20q-14 646 123 1385q7 37 37 37q52 0 80 -111q0 -1 1 -4t1 -4q9 -27 35.5 -120t32.5 -120q13 -53 39.5 -188t29.5 -162l68 -651v-21q0 -47 -33 -47q-12 0 -23 10t-12 23l-28 293l-4 4h-60q-133 0 -213 -8q0 -7 -2 -48t-2 -48q-2 -22 -2 -105.5t2 -105.5
q-2 -12 -13 -21.5t-24 -9.5q-8 0 -20.5 6.5t-12.5 15.5zM283 1282l-4 6q-86 -494 -95 -878q4 0 31 1t31 1q45 0 200 10v14q0 13 -12.5 115.5t-19.5 146.5q-6 39 -30.5 170t-33.5 170q-10 47 -37 144t-30 100zM164 1579q0 12 37 53t71.5 76t32.5 35q30 0 39.5 -7.5t9.5 -35.5
t-59 -92t-98 -64q-15 0 -24 10t-9 25z" />
    <glyph glyph-name="acircumflex" unicode="&#xe2;" horiz-adv-x="653" 
d="M104 20q-14 646 123 1385q7 37 37 37q52 0 80 -111q0 -1 1 -4t1 -4q9 -27 35.5 -120t32.5 -120q13 -53 39.5 -188t29.5 -162l68 -651v-21q0 -47 -33 -47q-12 0 -23 10t-12 23l-28 293l-4 4h-60q-133 0 -213 -8q0 -7 -2 -48t-2 -48q-2 -22 -2 -105.5t2 -105.5
q-2 -12 -13 -21.5t-24 -9.5q-8 0 -20.5 6.5t-12.5 15.5zM283 1282l-4 6q-86 -494 -95 -878q4 0 31 1t31 1q45 0 200 10v14q0 13 -12.5 115.5t-19.5 146.5q-6 39 -30.5 170t-33.5 170q-10 47 -37 144t-30 100zM424 1575q0 -13 -6.5 -19.5t-26.5 -7.5q-25 -2 -77.5 43
t-53.5 45l-88 -80q-13 -10 -41 -14h-6q-17 -2 -25.5 7.5t2.5 29.5l115 111q18 18 33 18q10 -1 13 0t9.5 -2t8 -3.5t7.5 -4.5l9 -6q2 -6 33.5 -26t61.5 -45.5t32 -45.5zM297 1692v2q2 0 2 -2h-2z" />
    <glyph glyph-name="atilde" unicode="&#xe3;" horiz-adv-x="653" 
d="M104 20q-14 646 123 1385q7 37 37 37q52 0 80 -111q0 -1 1 -4t1 -4q9 -27 35.5 -120t32.5 -120q13 -53 39.5 -188t29.5 -162l68 -651v-21q0 -47 -33 -47q-12 0 -23 10t-12 23l-28 293l-4 4h-60q-133 0 -213 -8q0 -7 -2 -48t-2 -48q-2 -22 -2 -105.5t2 -105.5
q-2 -12 -13 -21.5t-24 -9.5q-8 0 -20.5 6.5t-12.5 15.5zM283 1282l-4 6q-86 -494 -95 -878q4 0 31 1t31 1q45 0 200 10v14q0 13 -12.5 115.5t-19.5 146.5q-6 39 -30.5 170t-33.5 170q-10 47 -37 144t-30 100zM53 1573q0 54 44 109t98 55q28 0 45 -17l79 -80q17 -20 54 -20
q16 0 22.5 14t6.5 31t9 31t29 14q16 0 25.5 -11.5t9.5 -27.5q0 -54 -26 -88.5t-76 -34.5q-19 0 -38.5 6t-32 11t-33 22.5t-26 22t-29 28.5t-24.5 25q-18 0 -31 -21.5t-20.5 -47t-20 -47t-28.5 -21.5q-37 0 -37 47z" />
    <glyph glyph-name="adieresis" unicode="&#xe4;" horiz-adv-x="653" 
d="M104 20q-14 646 123 1385q7 37 37 37q52 0 80 -111q0 -1 1 -4t1 -4q9 -27 35.5 -120t32.5 -120q13 -53 39.5 -188t29.5 -162l68 -651v-21q0 -47 -33 -47q-12 0 -23 10t-12 23l-28 293l-4 4h-60q-133 0 -213 -8q0 -7 -2 -48t-2 -48q-2 -22 -2 -105.5t2 -105.5
q-2 -12 -13 -21.5t-24 -9.5q-8 0 -20.5 6.5t-12.5 15.5zM283 1282l-4 6q-86 -494 -95 -878q4 0 31 1t31 1q45 0 200 10v14q0 13 -12.5 115.5t-19.5 146.5q-6 39 -30.5 170t-33.5 170q-10 47 -37 144t-30 100zM68 1585q2 26 17.5 47t47.5 21h4q1 0 6.5 -1t6.5 -1
q27 -19 35.5 -31t7.5 -35q-4 -63 -64 -63q-32 0 -47.5 18t-13.5 45zM309 1589q2 25 18 46.5t48 21.5h4q1 0 6 -1t6 -1q27 -19 35.5 -31t7.5 -35q-4 -63 -63 -63q-32 0 -48 18t-14 45z" />
    <glyph glyph-name="aring" unicode="&#xe5;" horiz-adv-x="653" 
d="M104 20q-14 646 123 1385q7 37 37 37q52 0 80 -111q0 -1 1 -4t1 -4q9 -27 35.5 -120t32.5 -120q13 -53 39.5 -188t29.5 -162l68 -651v-21q0 -47 -33 -47q-12 0 -23 10t-12 23l-28 293l-4 4h-60q-133 0 -213 -8q0 -7 -2 -48t-2 -48q-2 -22 -2 -105.5t2 -105.5
q-2 -12 -13 -21.5t-24 -9.5q-8 0 -20.5 6.5t-12.5 15.5zM283 1282l-4 6q-86 -494 -95 -878q4 0 31 1t31 1q45 0 200 10v14q0 13 -12.5 115.5t-19.5 146.5q-6 39 -30.5 170t-33.5 170q-10 47 -37 144t-30 100zM135 1657q0 127 125 127q65 0 98 -30t33 -73q0 -51 -38.5 -92
t-98.5 -41q-53 0 -86 29t-33 80zM258 1724q-30 0 -46.5 -17t-16.5 -40q0 -22 15 -40.5t38 -18.5q33 0 51 18t18 43q0 24 -15 39.5t-44 15.5z" />
    <glyph glyph-name="ae" unicode="&#xe6;" horiz-adv-x="911" 
d="M412 547l-4 16q-1 0 -8 1t-9 1q-10 0 -88.5 -10t-81.5 -12q-47 -346 -51 -518q0 -10 -13 -16.5t-24 -6.5q-9 0 -20 6.5t-11 16.5q11 254 40 482t68 395.5t74 280.5t72 201q0 1 1 2.5t1 2.5t1 2t1 2q1 1 3 4l3 4.5t3.5 4.5t3.5 4.5t3.5 4t4 3.5t4 2.5t4.5 2.5t4.5 1.5
t5.5 0.5l13 -2h129q31 -4 98.5 1t106 0t38.5 -33q0 -15 -8.5 -25t-23.5 -10q-29 0 -130.5 3t-175.5 1l31 -698l6 -19q14 -5 66.5 -4.5t110.5 4t103.5 -6t45.5 -34.5q0 -7 -3 -13t-10 -9.5t-15 -6.5t-21 -4.5t-24.5 -2t-29.5 -0.5h-32.5t-36 0.5t-37.5 0.5q-99 0 -115 2
q-4 -4 -4 -6q0 -31 2 -88.5t4.5 -117.5t5.5 -115t5 -91.5t2 -37.5l4 -37q31 -1 88.5 2.5t81.5 3.5q8 0 22.5 0.5t22 0.5t18.5 -1t17 -3t12.5 -5.5t9 -9.5t2.5 -15q0 -26 -20 -35q-113 -18 -285 -18q-13 0 -24.5 7t-12.5 20zM377 1245q-39 -101 -83 -291.5t-61 -337.5l170 23
q5 2 5 18z" />
    <glyph glyph-name="ccedilla" unicode="&#xe7;" horiz-adv-x="649" 
d="M281 -362q0 22 8 28l94 64q20 13 20 30q0 29 -9.5 41.5t-23.5 12t-30.5 5t-30.5 18t-23.5 54t-9.5 109.5v18q-83 46 -133 236q-41 134 -41 281v376q0 73 16 157t49 171.5t96 145t145 57.5q49 0 81.5 -31.5t45 -74.5t12.5 -93q0 -14 -11 -24.5t-26 -10.5q-20 0 -28.5 16.5
t-10.5 40.5t-5.5 48t-18.5 40.5t-44 16.5q-60 0 -107 -53t-71.5 -131t-36.5 -149.5t-12 -125.5v-376q0 -69 8 -123l13 -82l14 -49q1 -1 14.5 -43.5t18.5 -51.5q38 -110 92 -110q20 0 38 26t27 52q42 109 52 268q-1 13 9.5 24t22.5 11q19 0 27.5 -7t11.5 -26q0 -55 -8 -111
q-4 -36 -14 -80.5t-28.5 -96t-50.5 -89t-71 -43.5l10 -110q50 -8 82.5 -45.5t32.5 -88.5q0 -52 -63 -104.5t-101 -52.5q-32 0 -32 35z" />
    <glyph glyph-name="egrave" unicode="&#xe8;" horiz-adv-x="589" 
d="M102 1290v103q0 21 35.5 29t65.5 8q3 0 22 0.5t36.5 1t42 -0.5t44.5 -4.5t38.5 -9t29 -16.5t10.5 -25q0 -12 -11 -22.5t-24 -10.5h-4q-89 15 -182 15h-27l-2 -6v-60q0 -16 3 -151t6 -251t5 -151h3q4 0 137 27q20 4 45 4q17 0 27 -9t10 -24q0 -32 -25 -35l-168 -30
q-12 -12 -29 -19q0 -6 -1 -39t-1 -39q0 -11 1 -43t1 -34l21 -400h6q12 2 53.5 10.5t61 12t51.5 7t59 3.5q45 0 45 -35q0 -11 -8 -21.5t-18 -11.5l-172 -24q-4 0 -36.5 -6t-35.5 -6q-1 0 -9.5 -1t-10.5 -1q-26 0 -41 16.5t-17 44.5zM346 1579q0 -15 -9 -25t-24 -10
q-39 0 -98 64t-59 92t9.5 35.5t39.5 7.5q-2 0 32.5 -35t71.5 -76t37 -53z" />
    <glyph glyph-name="eacute" unicode="&#xe9;" horiz-adv-x="589" 
d="M102 1290v103q0 21 35.5 29t65.5 8q3 0 22 0.5t36.5 1t42 -0.5t44.5 -4.5t38.5 -9t29 -16.5t10.5 -25q0 -12 -11 -22.5t-24 -10.5h-4q-89 15 -182 15h-27l-2 -6v-60q0 -16 3 -151t6 -251t5 -151h3q4 0 137 27q20 4 45 4q17 0 27 -9t10 -24q0 -32 -25 -35l-168 -30
q-12 -12 -29 -19q0 -6 -1 -39t-1 -39q0 -11 1 -43t1 -34l21 -400h6q12 2 53.5 10.5t61 12t51.5 7t59 3.5q45 0 45 -35q0 -11 -8 -21.5t-18 -11.5l-172 -24q-4 0 -36.5 -6t-35.5 -6q-1 0 -9.5 -1t-10.5 -1q-26 0 -41 16.5t-17 44.5zM156 1579q0 12 37 53t71.5 76t32.5 35
q30 0 39.5 -7.5t9.5 -35.5t-59.5 -92t-98.5 -64q-15 0 -23.5 10t-8.5 25z" />
    <glyph glyph-name="ecircumflex" unicode="&#xea;" horiz-adv-x="589" 
d="M102 1290v103q0 21 35.5 29t65.5 8q3 0 22 0.5t36.5 1t42 -0.5t44.5 -4.5t38.5 -9t29 -16.5t10.5 -25q0 -12 -11 -22.5t-24 -10.5h-4q-89 15 -182 15h-27l-2 -6v-60q0 -16 3 -151t6 -251t5 -151h3q4 0 137 27q20 4 45 4q17 0 27 -9t10 -24q0 -32 -25 -35l-168 -30
q-12 -12 -29 -19q0 -6 -1 -39t-1 -39q0 -11 1 -43t1 -34l21 -400h6q12 2 53.5 10.5t61 12t51.5 7t59 3.5q45 0 45 -35q0 -11 -8 -21.5t-18 -11.5l-172 -24q-4 0 -36.5 -6t-35.5 -6q-1 0 -9.5 -1t-10.5 -1q-26 0 -41 16.5t-17 44.5zM416 1575q0 -13 -6.5 -19.5t-26.5 -7.5
q-25 -2 -77.5 43t-53.5 45l-88 -80q-13 -10 -41 -14h-6q-17 -2 -25.5 7.5t2.5 29.5l115 111q18 18 33 18q10 -1 13 0t9.5 -2t8 -3.5t7.5 -4.5l9 -6q2 -6 33.5 -26t61.5 -45.5t32 -45.5zM289 1692v2q2 0 2 -2h-2z" />
    <glyph glyph-name="edieresis" unicode="&#xeb;" horiz-adv-x="589" 
d="M102 1290v103q0 21 35.5 29t65.5 8q3 0 22 0.5t36.5 1t42 -0.5t44.5 -4.5t38.5 -9t29 -16.5t10.5 -25q0 -12 -11 -22.5t-24 -10.5h-4q-89 15 -182 15h-27l-2 -6v-60q0 -16 3 -151t6 -251t5 -151h3q4 0 137 27q20 4 45 4q17 0 27 -9t10 -24q0 -32 -25 -35l-168 -30
q-12 -12 -29 -19q0 -6 -1 -39t-1 -39q0 -11 1 -43t1 -34l21 -400h6q12 2 53.5 10.5t61 12t51.5 7t59 3.5q45 0 45 -35q0 -11 -8 -21.5t-18 -11.5l-172 -24q-4 0 -36.5 -6t-35.5 -6q-1 0 -9.5 -1t-10.5 -1q-26 0 -41 16.5t-17 44.5zM301 1589q2 25 18 46.5t48 21.5h4
q1 0 6 -1t6 -1q27 -19 35.5 -31t7.5 -35q-4 -63 -64 -63q-32 0 -47.5 18t-13.5 45zM59 1585q2 25 18 46.5t48 21.5h4q1 0 6 -1t6 -1q27 -19 35.5 -31t7.5 -35q-4 -63 -63 -63q-32 0 -48 18t-14 45z" />
    <glyph glyph-name="igrave" unicode="&#xec;" horiz-adv-x="331" 
d="M102 39v10l54 1307q1 19 3.5 29.5t12.5 19t27 8.5q30 0 30 -35v-18l-55 -1292q0 -68 -37 -68q-16 0 -25.5 11.5t-9.5 27.5zM293 1559q0 -15 -9 -25t-24 -10q-39 0 -98.5 63.5t-59.5 91.5t9.5 35.5t40.5 7.5q-2 0 32.5 -34.5t71.5 -75.5t37 -53z" />
    <glyph glyph-name="iacute" unicode="&#xed;" horiz-adv-x="331" 
d="M102 39v10l54 1307q1 19 3.5 29.5t12.5 19t27 8.5q30 0 30 -35v-18l-55 -1292q0 -68 -37 -68q-16 0 -25.5 11.5t-9.5 27.5zM102 1559q0 12 37 53t72 75.5t33 34.5q30 0 39.5 -7.5t9.5 -35.5t-59.5 -91.5t-98.5 -63.5q-15 0 -24 10t-9 25z" />
    <glyph glyph-name="icircumflex" unicode="&#xee;" horiz-adv-x="331" 
d="M102 39v10l54 1307q1 19 3.5 29.5t12.5 19t27 8.5q30 0 30 -35v-18l-55 -1292q0 -68 -37 -68q-16 0 -25.5 11.5t-9.5 27.5zM362 1554q0 -13 -6 -19t-26 -7q-25 -2 -77.5 43t-53.5 45l-88 -80q-13 -10 -41 -14h-7q-17 -2 -25 7.5t3 29.5l115 110q19 19 32 19
q9 1 16.5 -0.5t10 -3t11.5 -7t10 -6.5q2 -6 33 -26t61 -45.5t32 -45.5zM236 1671v2q2 0 2 -2h-2z" />
    <glyph glyph-name="idieresis" unicode="&#xef;" horiz-adv-x="331" 
d="M102 39v10l54 1307q1 19 3.5 29.5t12.5 19t27 8.5q30 0 30 -35v-18l-55 -1292q0 -68 -37 -68q-16 0 -25.5 11.5t-9.5 27.5zM248 1569q2 25 17.5 46t47.5 21h4q1 0 6.5 -1t6.5 -1q28 -19 36 -30.5t7 -34.5q-4 -64 -64 -64q-32 0 -47.5 18.5t-13.5 45.5zM6 1565q2 25 18 46
t48 21h4q1 0 6 -1t6 -1q28 -19 36 -30.5t7 -34.5q-4 -64 -63 -64q-32 0 -48 18.5t-14 45.5z" />
    <glyph glyph-name="ntilde" unicode="&#xf1;" horiz-adv-x="724" 
d="M510 41l-342 1235q0 -61 5 -438t5 -439v-127q0 -109 15 -225q3 -21 -9 -34t-34 -13q-31 0 -35 41q-9 108 -9 209v133q1 37 -2 294t-0.5 483t17.5 274h4q18 5 33.5 -3t30.5 -34t28.5 -62.5t30.5 -96t33.5 -125.5t41 -160.5t50 -191.5t62.5 -228t77 -261l27 1047q0 3 2 20
t4.5 38.5t3.5 27.5q8 47 39 47q17 0 26 -10.5t9 -26.5v-10l-41 -1364q0 -14 -12 -21.5t-27 -7.5q-12 0 -22 8.5t-11 20.5zM154 1569q0 54 43.5 109t97.5 55q28 0 45 -17l80 -80q17 -20 53 -20q16 0 22.5 14t7 31t9.5 31t29 14q16 0 25 -11.5t9 -27.5q0 -54 -26 -88.5
t-76 -34.5q-19 0 -38.5 6t-32 11.5t-32 21.5t-26.5 22.5t-28 28t-25 25.5q-18 0 -31.5 -21.5t-20.5 -47t-20 -47t-29 -21.5q-36 0 -36 47z" />
    <glyph glyph-name="ograve" unicode="&#xf2;" horiz-adv-x="727" 
d="M102 688q0 5 0.5 17t1 21.5t0.5 10.5q8 170 19 299q7 63 17.5 114t32.5 105t53 91t81 60.5t113 23.5q39 0 72.5 -20t55.5 -51.5t38.5 -71.5t25 -77.5t11.5 -72.5q0 -13 1 -90t1 -91q0 -20 -0.5 -63t-1 -79t-0.5 -38q0 -7 -1 -21.5t-1 -21.5q-5 -96 -9 -148.5t-11 -134.5
t-15.5 -127.5t-22 -105.5t-31.5 -92.5t-42 -65t-56 -46t-72 -13.5q-57 0 -96 31q-50 39 -85.5 122t-51 186t-21.5 186t-6 163zM176 686q0 -70 5 -145t19 -172.5t45.5 -175t76.5 -111.5q12 -8 43 -8q83 0 129 176q19 65 31 175.5t16 175t9 223t5 167.5v39q0 34 -1 58.5
t-4.5 62.5t-12 66t-22 57.5t-35.5 50t-52 31.5h-4q-40 0 -73.5 -12.5t-56 -32t-40.5 -51t-28.5 -60.5t-18 -69.5t-11 -70t-6.5 -69.5l-14 -254v-51zM481 1567q0 -15 -8.5 -25t-23.5 -10q-39 0 -98.5 64t-59.5 92t9.5 35.5t39.5 7.5q-2 0 32.5 -35t71.5 -76t37 -53z" />
    <glyph glyph-name="oacute" unicode="&#xf3;" horiz-adv-x="727" 
d="M102 688q0 5 0.5 17t1 21.5t0.5 10.5q8 170 19 299q7 63 17.5 114t32.5 105t53 91t81 60.5t113 23.5q39 0 72.5 -20t55.5 -51.5t38.5 -71.5t25 -77.5t11.5 -72.5q0 -13 1 -90t1 -91q0 -20 -0.5 -63t-1 -79t-0.5 -38q0 -7 -1 -21.5t-1 -21.5q-5 -96 -9 -148.5t-11 -134.5
t-15.5 -127.5t-22 -105.5t-31.5 -92.5t-42 -65t-56 -46t-72 -13.5q-57 0 -96 31q-50 39 -85.5 122t-51 186t-21.5 186t-6 163zM176 686q0 -70 5 -145t19 -172.5t45.5 -175t76.5 -111.5q12 -8 43 -8q83 0 129 176q19 65 31 175.5t16 175t9 223t5 167.5v39q0 34 -1 58.5
t-4.5 62.5t-12 66t-22 57.5t-35.5 50t-52 31.5h-4q-40 0 -73.5 -12.5t-56 -32t-40.5 -51t-28.5 -60.5t-18 -69.5t-11 -70t-6.5 -69.5l-14 -254v-51zM291 1567q0 12 37 53t71.5 76t32.5 35q30 0 39.5 -7.5t9.5 -35.5t-59 -92t-98 -64q-15 0 -24 10t-9 25z" />
    <glyph glyph-name="ocircumflex" unicode="&#xf4;" horiz-adv-x="727" 
d="M102 688q0 5 0.5 17t1 21.5t0.5 10.5q8 170 19 299q7 63 17.5 114t32.5 105t53 91t81 60.5t113 23.5q39 0 72.5 -20t55.5 -51.5t38.5 -71.5t25 -77.5t11.5 -72.5q0 -13 1 -90t1 -91q0 -20 -0.5 -63t-1 -79t-0.5 -38q0 -7 -1 -21.5t-1 -21.5q-5 -96 -9 -148.5t-11 -134.5
t-15.5 -127.5t-22 -105.5t-31.5 -92.5t-42 -65t-56 -46t-72 -13.5q-57 0 -96 31q-50 39 -85.5 122t-51 186t-21.5 186t-6 163zM176 686q0 -70 5 -145t19 -172.5t45.5 -175t76.5 -111.5q12 -8 43 -8q83 0 129 176q19 65 31 175.5t16 175t9 223t5 167.5v39q0 34 -1 58.5
t-4.5 62.5t-12 66t-22 57.5t-35.5 50t-52 31.5h-4q-40 0 -73.5 -12.5t-56 -32t-40.5 -51t-28.5 -60.5t-18 -69.5t-11 -70t-6.5 -69.5l-14 -254v-51zM551 1563q0 -13 -6.5 -19.5t-26.5 -7.5q-25 -2 -77.5 43t-53.5 45l-88 -80q-13 -10 -41 -14h-6q-17 -2 -25.5 7.5t2.5 29.5
l115 110q19 19 33 19q7 1 12.5 0.5t10.5 -2.5t7.5 -4t8 -5.5t8.5 -5.5q2 -6 33.5 -26t61.5 -45t32 -45zM424 1679v2q2 0 2 -2h-2z" />
    <glyph glyph-name="otilde" unicode="&#xf5;" horiz-adv-x="727" 
d="M102 688q0 5 0.5 17t1 21.5t0.5 10.5q8 170 19 299q7 63 17.5 114t32.5 105t53 91t81 60.5t113 23.5q39 0 72.5 -20t55.5 -51.5t38.5 -71.5t25 -77.5t11.5 -72.5q0 -13 1 -90t1 -91q0 -20 -0.5 -63t-1 -79t-0.5 -38q0 -7 -1 -21.5t-1 -21.5q-5 -96 -9 -148.5t-11 -134.5
t-15.5 -127.5t-22 -105.5t-31.5 -92.5t-42 -65t-56 -46t-72 -13.5q-57 0 -96 31q-50 39 -85.5 122t-51 186t-21.5 186t-6 163zM176 686q0 -70 5 -145t19 -172.5t45.5 -175t76.5 -111.5q12 -8 43 -8q83 0 129 176q19 65 31 175.5t16 175t9 223t5 167.5v39q0 34 -1 58.5
t-4.5 62.5t-12 66t-22 57.5t-35.5 50t-52 31.5h-4q-40 0 -73.5 -12.5t-56 -32t-40.5 -51t-28.5 -60.5t-18 -69.5t-11 -70t-6.5 -69.5l-14 -254v-51zM180 1561q0 54 44 108.5t98 54.5q29 0 45 -16l79 -80q17 -20 54 -20q16 0 22.5 14t6.5 31t9 31t29 14q16 0 25.5 -11.5
t9.5 -27.5q0 -54 -26 -88.5t-76 -34.5q-19 0 -38.5 6t-32 11t-33 22.5t-26 22t-29 28.5t-24.5 25q-18 0 -31 -21.5t-20.5 -47.5t-20 -47.5t-28.5 -21.5q-37 0 -37 48z" />
    <glyph glyph-name="odieresis" unicode="&#xf6;" horiz-adv-x="727" 
d="M102 688q0 5 0.5 17t1 21.5t0.5 10.5q8 170 19 299q7 63 17.5 114t32.5 105t53 91t81 60.5t113 23.5q39 0 72.5 -20t55.5 -51.5t38.5 -71.5t25 -77.5t11.5 -72.5q0 -13 1 -90t1 -91q0 -20 -0.5 -63t-1 -79t-0.5 -38q0 -7 -1 -21.5t-1 -21.5q-5 -96 -9 -148.5t-11 -134.5
t-15.5 -127.5t-22 -105.5t-31.5 -92.5t-42 -65t-56 -46t-72 -13.5q-57 0 -96 31q-50 39 -85.5 122t-51 186t-21.5 186t-6 163zM176 686q0 -70 5 -145t19 -172.5t45.5 -175t76.5 -111.5q12 -8 43 -8q83 0 129 176q19 65 31 175.5t16 175t9 223t5 167.5v39q0 34 -1 58.5
t-4.5 62.5t-12 66t-22 57.5t-35.5 50t-52 31.5h-4q-40 0 -73.5 -12.5t-56 -32t-40.5 -51t-28.5 -60.5t-18 -69.5t-11 -70t-6.5 -69.5l-14 -254v-51zM195 1573q2 25 17.5 46t47.5 21h4q1 0 6 -1t6 -1q28 -19 36 -30.5t7 -34.5q-4 -64 -63 -64q-32 0 -47.5 18.5t-13.5 45.5z
M436 1577q2 25 18 46.5t48 21.5h4q1 0 6 -1.5t6 -1.5q28 -19 36 -30.5t7 -34.5q-4 -64 -63 -64q-32 0 -48 18.5t-14 45.5z" />
    <glyph glyph-name="oslash" unicode="&#xf8;" horiz-adv-x="727" 
d="M166 49v8l16 93q-80 183 -80 538q0 5 0.5 17t1 21.5t0.5 10.5q8 170 19 299q7 63 17.5 114t32.5 105t53 91t81 60.5t113 23.5q34 0 69 -21q12 12 31 12q18 0 28.5 -8.5t10.5 -23.5q0 -20 -10 -35q31 -44 50 -103.5t24 -113.5q0 -13 1 -90t1 -91q0 -20 -0.5 -63t-1 -79
t-0.5 -38q0 -7 -1 -21.5t-1 -21.5q-5 -96 -9 -148.5t-11 -134.5t-15.5 -127.5t-22 -105.5t-31.5 -92.5t-42 -65t-56 -46t-72 -13.5q-57 0 -96 31q-13 8 -26 24q-7 -43 -39 -43q-13 0 -24 11.5t-11 25.5zM555 1030q0 150 -31 225l-264 -1097q26 -53 62 -76q12 -8 43 -8
q83 0 129 176q61 214 61 741v39zM176 686q0 -229 39 -393l252 1040q-11 11 -39 23h-4q-56 0 -98.5 -24t-66 -59t-39.5 -88t-21.5 -96t-8.5 -98l-14 -254v-51z" />
    <glyph glyph-name="ugrave" unicode="&#xf9;" horiz-adv-x="657" 
d="M102 737v135q4 160 23 517q4 57 43 57q15 0 24 -10t9 -27q0 -1 -1 -7.5t-1 -8.5q-3 -130 -23 -512v-299l8 -160l15 -100q0 -2 1 -6.5t1 -6.5q7 -41 14.5 -71t23.5 -70.5t42.5 -63t60.5 -22.5h25q42 10 77 162q24 167 30.5 334.5t6.5 402.5q0 260 -6 412q13 39 39 39
q31 0 35 -39q6 -99 6 -226v-174q0 -338 -8 -514l-19 -186q-4 -33 -9 -58t-14 -61.5t-22 -62.5t-31.5 -51.5t-45.5 -38.5t-60 -13q-73 0 -115 37q-48 42 -81 166q-30 116 -39 237.5t-9 288.5zM432 1563q0 -15 -9 -25t-24 -10q-39 0 -98 63.5t-59 91.5t9.5 35.5t39.5 7.5
q-2 0 32.5 -34.5t71.5 -75.5t37 -53z" />
    <glyph glyph-name="uacute" unicode="&#xfa;" horiz-adv-x="657" 
d="M102 737v135q4 160 23 517q4 57 43 57q15 0 24 -10t9 -27q0 -1 -1 -7.5t-1 -8.5q-3 -130 -23 -512v-299l8 -160l15 -100q0 -2 1 -6.5t1 -6.5q7 -41 14.5 -71t23.5 -70.5t42.5 -63t60.5 -22.5h25q42 10 77 162q24 167 30.5 334.5t6.5 402.5q0 260 -6 412q13 39 39 39
q31 0 35 -39q6 -99 6 -226v-174q0 -338 -8 -514l-19 -186q-4 -33 -9 -58t-14 -61.5t-22 -62.5t-31.5 -51.5t-45.5 -38.5t-60 -13q-73 0 -115 37q-48 42 -81 166q-30 116 -39 237.5t-9 288.5zM242 1563q0 12 37 53t71.5 75.5t32.5 34.5q30 0 39.5 -7.5t9.5 -35.5t-59.5 -91.5
t-98.5 -63.5q-15 0 -23.5 10t-8.5 25z" />
    <glyph glyph-name="ucircumflex" unicode="&#xfb;" horiz-adv-x="657" 
d="M102 737v135q4 160 23 517q4 57 43 57q15 0 24 -10t9 -27q0 -1 -1 -7.5t-1 -8.5q-3 -130 -23 -512v-299l8 -160l15 -100q0 -2 1 -6.5t1 -6.5q7 -41 14.5 -71t23.5 -70.5t42.5 -63t60.5 -22.5h25q42 10 77 162q24 167 30.5 334.5t6.5 402.5q0 260 -6 412q13 39 39 39
q31 0 35 -39q6 -99 6 -226v-174q0 -338 -8 -514l-19 -186q-4 -33 -9 -58t-14 -61.5t-22 -62.5t-31.5 -51.5t-45.5 -38.5t-60 -13q-73 0 -115 37q-48 42 -81 166q-30 116 -39 237.5t-9 288.5zM502 1559q0 -13 -6.5 -19.5t-26.5 -7.5q-25 -2 -77.5 43t-53.5 45l-88 -80
q-13 -10 -41 -14h-6q-17 -2 -25.5 7.5t2.5 29.5l115 110q19 19 33 19q7 1 12.5 0.5t10.5 -2.5t7.5 -4t8 -5.5t8.5 -5.5q2 -6 33.5 -26t61.5 -45t32 -45zM375 1675v2q2 0 2 -2h-2z" />
    <glyph glyph-name="udieresis" unicode="&#xfc;" horiz-adv-x="657" 
d="M102 737v135q4 160 23 517q4 57 43 57q15 0 24 -10t9 -27q0 -1 -1 -7.5t-1 -8.5q-3 -130 -23 -512v-299l8 -160l15 -100q0 -2 1 -6.5t1 -6.5q7 -41 14.5 -71t23.5 -70.5t42.5 -63t60.5 -22.5h25q42 10 77 162q24 167 30.5 334.5t6.5 402.5q0 260 -6 412q13 39 39 39
q31 0 35 -39q6 -99 6 -226v-174q0 -338 -8 -514l-19 -186q-4 -33 -9 -58t-14 -61.5t-22 -62.5t-31.5 -51.5t-45.5 -38.5t-60 -13q-73 0 -115 37q-48 42 -81 166q-30 116 -39 237.5t-9 288.5zM387 1573q2 25 18 46t48 21h4q1 0 6 -1t6 -1q28 -19 36 -30.5t7 -34.5
q-4 -64 -63 -64q-32 0 -48 18.5t-14 45.5zM145 1569q2 25 18 46t48 21h4q1 0 6 -1t6 -1q28 -19 36 -30.5t7 -34.5q-4 -64 -63 -64q-32 0 -48 18.5t-14 45.5z" />
    <glyph glyph-name="Euro" unicode="&#x20ac;" horiz-adv-x="735" 
d="M182 600q-2 0 -12.5 0.5t-15.5 1t-14.5 2t-15 4.5t-11.5 6.5t-8.5 10t-2.5 14.5q0 9 5 22t12 13h63q11 133 15 190q-4 9 -45 19.5t-41 38.5q0 16 12 26t27 10q8 0 22 -3t21 -3q6 0 11 10t9.5 27.5t7.5 33t6 35.5t4 25q12 49 29.5 97.5t46.5 106t72.5 93t93.5 35.5
q73 0 116.5 -57.5t43.5 -132.5q0 -22 -5.5 -32.5t-25.5 -10.5q-23 0 -33 25t-12.5 54.5t-22.5 54.5t-61 25q-37 0 -74.5 -49t-62 -115t-40 -127.5t-15.5 -91.5q0 -7 40 -9t88 -3t88 -12.5t40 -36.5q0 -12 -8.5 -20.5t-20.5 -8.5q-42 0 -120 2t-116 2l-4 -14q-4 -4 -7 -57
t-3 -78v-4q0 -9 1 -26t1 -19h119q14 0 25.5 -13t11.5 -26q0 -12 -10.5 -23.5t-22.5 -11.5h-123q0 -1 -1 -12t-1 -17q2 -95 43 -268q0 -2 1 -6t1 -6q6 -24 17 -56t28.5 -70t42 -63.5t49.5 -25.5q29 0 52 34t33 69.5t14 66.5q1 7 2 29t2.5 34t5.5 27.5t13 23t22 7.5
q20 0 26 -10.5t6 -32.5q0 -47 -8 -97t-26.5 -102t-55 -85.5t-86.5 -33.5q-42 0 -78 26t-60.5 68.5t-40 82.5t-25.5 81q-40 166 -54 336z" />
    </font>
</defs>
</svg>
